<svg xmlns="http://www.w3.org/2000/svg" viewBox="0 100 1440 1440">
  <g fill="none" fill-rule="evenodd">
    <path fill="#D8D8D8" d="M0 0h1440v1440H0z"/>
    <path fill="#FFF" d="M0 0h1440v1440H0z"/>
    <path fill="#FFF" stroke="#FFF" stroke-width="1.5" d="M0 1440h536l-6-4c-2.5-2-8.5-5-12-6-3-1.5-9.5-4-13-5-3-1-10-2.5-14-3-3.5-1-10.5-2.5-14-3-3.5-1-10-3.5-13-5-2.5-1.5-8.5-4-12-5l-12-6c-2.5-1.5-8-4.5-11-6-2.5-2-8-5.5-11-7-2.5-1.5-8-4.5-11-6-2.5-1.5-8-4.5-11-6s-8.5-4.5-11-6c-2.5-2-8-5.5-11-7l-10-8c-2-2-6.5-5.5-9-7-2.5-2-8-5.5-11-7s-5.5-1.5-5 0c.5 1 3 4.5 5 7 2.5 2 7 6 9 8 2.5 2 7 6 9 8l5 4-6-2c-3-1-8.5-3.5-11-5-2.5-2-8-5.5-11-7l-10-8-8-8c-2-2.5-6.5-7-9-9l-8-10c-1.5-2.5-5.5-7-8-9-2-2.5-6.5-7-9-9l-8-8c-2-2.5-4.5-6-5-7 0-1.5 2-1 4 1l5 4-4-4c-1.5-2.5-5-7-7-9-2-2.5-6.5-7-9-9-2-2-6.5-6-9-8l-4-5 2 4c1 1.5 4 5.5 6 8s5.5 8 7 11c1.5 2.5 4 7.5 5 10 1 2 4 6.5 6 9l8 10c2 2 6 6.5 8 9s5 7.5 6 10c1.5 2.5 2.5 6 2 7 0 1 1 5 2 8s.5 9-1 12c-1.5 2.5-5.5 7.5-8 10l-8 8-4 3 2-5 6-10c2-3 4-9 4-12 0-3.5-1.5-10-3-13s-5.5-8-8-10c-2-2-4.5-5-5-6 0-1-1-4.5-2-7-.5-3-3-8.5-5-11-1.5-2.5-5-7.5-7-10s-5.5-7.5-7-10c-1.5-3-5-8-7-10l-8-10c-2-2.5-6.5-6.5-9-8l-10-8c-2-2.5-6.5-6-9-7l-4-2 4 4c2.5 2 7 6.5 9 9 2.5 2 6.5 6 8 8l4 4-5-2c-2.5-1-7.5-4-10-6-2-2-6.5-6-9-8-2-2-7-5.5-10-7-2.5-2-8-4.5-11-5-3-1-7-.5-8 1s1 4 4 5c3 .5 8 3 10 5l10 8c2.5 2 8 5.5 11 7 3 1 8.5 4 11 6s7 5.5 9 7c2.5 1.5 7.5 5 10 7 2.5 1.5 7 5.5 9 8s5.5 7.5 7 10c2 2.5 3 5.5 2 6-.5 0-3-.5-5-1-2-1-6-4.5-8-7-1.5-2.5-6-6-9-7-2.5-1.5-7.5-3-10-3-2.5-.5-8.5 0-12 1l-6 1 3-3c2-1.5 6-5 8-7 2-2.5 1-6.5-2-8s-8.5-4.5-11-6l-10-8c-2-2.5-7-6-10-7-2.5-1-7.5-.5-10 1-2 1.5-7.5 2.5-11 2-3-1-8.5-3.5-11-5l-4-3 4 5 5 4h-2c-1-.5-4-3-6-5l-8-10c-2-2.5-6.5-6-9-7l-10-6c-2.5-1.5-7.5-3-10-3-2.5-.5-5.5-1-6-1-.5-.5-1 1.5-1 4s3 5.5 6 6c3 0 8 2 10 4 2.5 2 6 7 7 10s.5 9-1 12c-1.5 2.5-4.5 3.5-6 2s-3-6-3-9c.5-3-1.5-7-4-8-2-1-6.5-1-9 0-2 .5-5.5-1.5-7-4l-6-12c-1.5-3-2.5-9.5-2-13 .5-4 1-9.5 1-11v-4l-4 5c-1.5 2-4.5 5-6 6-1 1-4.5 4-7 6l-10 8c-2.5 1.5-7.5 5-10 7-2.5 1.5-7.5 5.5-10 8-2 2-6.5 6-9 8-2 2-7 5.5-10 7s-8.5 5-11 7c-2 2-2 4 0 4h5l-6 4c-2.5 1.5-9 5.5-13 8l-8 4v45l6-2c3.5-1 10-3 13-4l6-3-5 5c-2 2-7 5.5-10 7-3 1-7 2-8 2H0v11l7-2c4-1.5 9.5-3 11-3 2 0 1.5 2.5-1 5-2 2-7.5 5-11 6l-6 1v25l4-1c2.5-.5 5.5-1 6-1h1l-4 3c-2 1-5 2-6 2H0v4l8-5c4.5-3 11-8 13-10 2-2.5 6-7 8-9l5-5v3c.5 1.5-1 5.5-3 8-2 2-6 7-8 10-1.5 2.5-5 7.5-7 10-2 2-7 5-10 6l-6 2v49z"/>
    <path fill="#455A64" stroke="#455A64" stroke-width="1.5" d="M536 1440h368l8-3c4-2 11-3 14-2 3 .5 9.5.5 13 0s10-2 13-3c3.5-1 10.5-2.5 14-3 3.5-1 10.5-2.5 14-3 4-1 11-3 14-4 3-1.5 9-4 12-5 3.5-1.5 10-4 13-5 3-1.5 8.5-4.5 11-6 3-1.5 8.5-5 11-7s7-6 9-8l10-8c2.5-2 7.5-5.5 10-7 2.5-2 7.5-5.5 10-7 2.5-2 7-6 9-8l9-9c2-2.5 6-7 8-9l9-9c2.5-2 7.5-5.5 10-7 2.5-2 7-6 9-8l9-9 8-10c2-2.5 5-8 6-11 1.5-3 4.5-8.5 6-11 1.5-3 4.5-8.5 6-11 2-3 5.5-8.5 7-11 2-2.5 5-8 6-11s3.5-8.5 5-11c2-2.5 5.5-7.5 7-10 2-2.5 5.5-7.5 7-10l4-6-4 2c-1.5 1-3 0-3-2 .5-2.5.5-8 0-11 0-3 1-8.5 2-11 1-3 3.5-8.5 5-11 2-3 5-7 6-8l3-2-3 7c-1 3-2.5 9.5-3 13v14c.5 3.5-.5 10-2 13l-6 12c-1 3-3.5 9.5-5 13-1 3-4 8.5-6 11-1.5 2.5-5 7.5-7 10-1.5 2.5-5 7.5-7 10s-5.5 8-7 11c-1.5 2.5-4.5 8-6 11s-2.5 8-2 10c1 2-.5 6-3 8-2 2-6 6.5-8 9l-8 10c-1.5 2.5-5.5 7-8 9s-7.5 5.5-10 7c-2.5 1-7.5 4-10 6-2 2-6 6.5-8 9s-6.5 7-9 9c-2 2-7 5.5-10 7-2.5 1.5-8 5-11 7-2.5 1.5-8 4.5-11 6-2.5 1.5-8 5-11 7l-5 3h3l9-3c3-1.5 9-4 12-5 3.5-1.5 10-4 13-5 3-1.5 8.5-4.5 11-6 3-2 8-6 10-8 2.5-2 7-6 9-8l10-8c2.5-2 7-6 9-8 2.5-2 7-6.5 9-9s5.5-7.5 7-10c2-2.5 6-7 8-9 2-2.5 6-7 8-9 2.5-2.5 6-8 7-11 1.5-3 4.5-8.5 6-11 2-3 5.5-8.5 7-11 2-2.5 6-7 8-9 2-2.5 5.5-8 7-11s4-9 5-12c1.5-3 4.5-8.5 6-11 2-3 4-7 4-8 0-1.5-1.5-2.5-3-2-1.5 0-1.5-2.5 0-5 2-3 4.5-9.5 5-13 .5-4 1.5-11 2-14 1-3.5 3-10 4-13 1-3.5 3-10 4-13 1-3.5 4-9 6-11 2.5-2.5 6.5-4.5 8-4 2 .5 2.5 4.5 1 8-1 3-4 8.5-6 11-2 2-6 6.5-8 9-1.5 2.5-2.5 7.5-2 10s3 3 5 1c2.5-2 7-6 9-8 2.5-2.5 6.5-7.5 8-10 1.5-3 4-9 5-12 1.5-3 2.5-9.5 2-13s-2-9.5-3-12c-.5-2.5 1-7.5 3-10s6-7 8-9c2.5-2 7-6 9-8 2-2.5 6-7 8-9l9-9c2-2.5 6-7 8-9 2.5-2.5 6.5-7.5 8-10 2-2.5 5.5-7.5 7-10l8-10c2-2.5 5.5-7.5 7-10l8-10c2-2.5 5.5-7.5 7-10 1.5-3 4.5-8.5 6-11l6-12c1.5-3 4.5-8.5 6-11l6-12c1.5-3 4-9 5-12 1.5-3 4-9 5-12 1-3.5 3-10 4-13 1.5-3.5 3.5-10.5 4-14 1-3.5 2.5-10.5 3-14 1-4 2.5-11.5 3-15 1-3.5 2-11 2-15 .5-4 1-12.5 1-17v-17c0-4.5-.5-13-1-17 0-4.5-.5-12.5-1-16-.5-4-2-11.5-3-15-.5-3.5-2-10.5-3-14-.5-4-2-11-3-14-1-3.5-3.5-10-5-13-1-3.5-3.5-10-5-13-1-3-3.5-9-5-12-1-3-3.5-9-5-12s-4.5-8.5-6-11c-1.5-3-5-8.5-7-11s-5.5-7.5-7-10c-1.5-3-5-8.5-7-11-1.5-2.5-5.5-7-8-9-2-2.5-6-7-8-9l-8-10c-2-2.5-6.5-8-9-11l-5-7h-4c-2-.5-3.5 2.5-3 6 1 3 3.5 8.5 5 11 2 2.5 5.5 8 7 11l8 10c2 2 5.5 6.5 7 9l8 10c2 2.5 5.5 8 7 11 1.5 2.5 4.5 8 6 11 2 2.5 5.5 8 7 11 1.5 2.5 4 8 5 11l6 12c1.5 3 4 9 5 12 1.5 3 4 9.5 5 13l4 14c1 3 2.5 9.5 3 13 1 3.5 2.5 11 3 15l2 16c.5 3.5 1 11.5 1 16 .5 4 .5 12 0 16-.5 3.5-1.5 11-2 15 0 4-.5 12-1 16s-2 11.5-3 15c-.5 3.5-2 10.5-3 14l-4 14c-.5 3.5-2.5 10-4 13-1 3-3.5 9-5 12l-6 12c-1 3-3.5 9-5 12l-6 12c-1.5 2.5-5 7.5-7 10-1.5 2.5-5 8-7 11-1.5 2.5-5 7.5-7 10-2 2-6 7-8 10-1.5 2.5-5 7.5-7 10-2 2-6 6.5-8 9-2 2-6 6.5-8 9s-6.5 7-9 9l-9 9c-2 2-6 6.5-8 9-2 2-6.5 6-9 8l-9 9c-2 2-6.5 6-9 8-2.5 1.5-7.5 5.5-10 8-2 2-6.5 6-9 8-2.5 1.5-8 4.5-11 6-2.5 1.5-7.5 5-10 7s-8 5.5-11 7c-2.5 1.5-8 4.5-11 6l-12 6c-2.5 1.5-8 4.5-11 6-2.5 1.5-8 4.5-11 6l-12 6c-2.5 1.5-8.5 4-12 5s-10 3.5-13 5c-3 1-9 3.5-12 5-3 1-9.5 3.5-13 5-3 1-9 3.5-12 5-3 1-9.5 3-13 4s-10 3.5-13 5c-3 1-9.5 3-13 4-3.5.5-10.5 2-14 3l-14 4c-3.5.5-10.5 2-14 3l-14 4c-3 1-9.5 3-13 4-3.5.5-11.5 1.5-16 2-4 0-11.5 1-15 2-3.5.5-11 2-15 3-3.5.5-11 1.5-15 2-3.5.5-11 1.5-15 2-3.5.5-11 1.5-15 2l-16 2c-3.5.5-11.5 1.5-16 2h-17c-4 0-12 .5-16 1-3.5.5-11.5 1-16 1h-69c-4-.5-12.5-1-17-1-4-.5-12-1-16-1l-16-2c-4-.5-12-1-16-1l-16-2c-3.5-.5-11-1.5-15-2-3.5-1-11-2.5-15-3-3.5-.5-11-1.5-15-2-3.5-1-10.5-2.5-14-3-3.5-1-10.5-2.5-14-3l-14-4c-3.5-1-10.5-2.5-14-3l-14-4c-3.5-1-10-3-13-4-3-1.5-9.5-4-13-5-3-1-9.5-3-13-4-3-1.5-9.5-4-13-5-3-1-9.5-3-13-4-3-1.5-9-4-12-5-3-1.5-9-4-12-5l-12-6-12-6c-2.5-1.5-8-4.5-11-6l-12-6c-2.5-1.5-8-4.5-11-6-2.5-1.5-8-4.5-11-6-2.5-2-7.5-5.5-10-7-2.5-2-8-5.5-11-7l-10-8c-2-2-6.5-5.5-9-7l-10-8-10-8c-2-2-6.5-6-9-8s-7-6-9-8c-2-2.5-6.5-7-9-9-2-2-6-6.5-8-9s-6-7-8-9l-8-10-8-10-6-10c-1.5-3-5-8.5-7-11s-5.5-7.5-7-10l-6-12c-1.5-3-4.5-8.5-6-11-1.5-3-4-9-5-12-1-3.5-3.5-10-5-13-1-3.5-3-10-4-13l-4-14-4-14-2-14c-.5-4-1-12.5-1-17s-.5-12.5-1-16c-.5-4-.5-12 0-16s1-12 1-16c.5-4 1.5-11.5 2-15 .5-4 2-11.5 3-15s2.5-10.5 3-14c1-3.5 3-10 4-13 1.5-3.5 4-10 5-13 1-3.5 3-10 4-13l6-12c1.5-3 4.5-8.5 6-11l6-12c1.5-3 4.5-8.5 6-11 2-2.5 5.5-7.5 7-10 1.5-3 5-8.5 7-11s5.5-7.5 7-10l8-10c2-2.5 6-7 8-9 2-2.5 6-7 8-9 2-2.5 6-7 8-9l9-9c2-2.5 6.5-7 9-9s7-6 9-8c2.5-2 7-6 9-8 2.5-2 7.5-5.5 10-7 3-2 8-6 10-8 2.5-2 7.5-5.5 10-7 3-2 8.5-5.5 11-7 2.5-2 7.5-5.5 10-7 2.5-2 8-5.5 11-7s8.5-4.5 11-6l12-6c3-1.5 8.5-4.5 11-6 3-1.5 8.5-4.5 11-6 3-1.5 9-4 12-5 3.5-1.5 8.5-1 10 1 2 2 4.5 8 5 12 1 3.5 2.5 10.5 3 14l4 14c1 3 3 9.5 4 13 1.5 3 4 9 5 12l6 12c2 2.5 5.5 7.5 7 10 2 2.5 5.5 7.5 7 10l8 10c2 2.5 6 7 8 9 2.5 2 7 6.5 9 9 2.5 2 7 6 9 8l10 8c2.5 1.5 7.5 5 10 7 3 1.5 8.5 4.5 11 6 3 1.5 9.5 3.5 13 4 4 0 11 1 14 2 3 .5 8.5 2.5 11 4 3 1.5 9.5 4 13 5s10 3 13 4c3.5 1 10 3.5 13 5s6 2 6 1c0-1.5-3-4.5-6-6-2.5-2-8.5-5-12-6-3-1-9-3.5-12-5-2.5-1.5-8-4.5-11-6l-12-6c-2.5-1.5-8-4.5-11-6s-8.5-4.5-11-6c-2.5-2-7.5-5-10-6-2.5-1.5-7.5-4-10-5-2-1.5-6.5-5-9-7-2-2-6.5-6-9-8-2-2.5-6-7-8-9-2-2.5-6-7-8-9l-8-10c-1.5-3-5-8.5-7-11-1.5-2.5-4.5-8-6-11l-6-12c-1-3-3.5-9-5-12-1-3-3-9.5-4-13l-4-14c-.5-3.5-2.5-10-4-13-1-3.5-4-9.5-6-12-1.5-2.5-7-5.5-11-6-3.5-.5-10.5.5-14 2-3 1-9 3.5-12 5-2.5 1.5-8 4.5-11 6l-12 6c-2.5 1.5-8 4.5-11 6-2.5 1.5-8 5-11 7-2.5 1.5-7.5 5-10 7-2.5 1.5-8 5-11 7-2.5 1.5-7.5 5-10 7-2.5 1.5-7.5 5-10 7-2.5 1.5-7.5 5-10 7l-10 8c-2 2-6.5 6-9 8l-10 8c-2 2-6.5 6-9 8l-9 9c-2 2-6.5 6-9 8-2 2-6 6.5-8 9l-8 10c-2 2-6 6.5-8 9-1.5 2.5-5 7.5-7 10l-8 10c-1.5 2.5-5 8-7 11-1.5 2.5-5 7.5-7 10-1.5 2.5-4.5 8-6 11-1.5 2.5-4.5 8-6 11l-6 12c-1.5 2.5-4.5 8.5-6 12-1 3-3.5 9-5 12-1 3-3.5 9-5 12-1 3-3 9.5-4 13l-4 14c-.5 3.5-2 10.5-3 14s-2.5 11-3 15c-.5 3.5-2 10.5-3 14-.5 3.5-1 11.5-1 16 .5 4 .5 11 0 14v6l-1-8c-.5-4-2-11.5-3-15-.5-3.5-3.5-8.5-6-10-2-1.5-4-.5-4 2 .5 2-1 6.5-3 9-1.5 2.5-.5 4.5 2 4 3-1 7 1.5 8 5 1 3 2.5 9.5 3 13 1 3.5 2.5 11 3 15l2 16c.5 3.5.5 9 0 11s-3 6.5-5 9c-2 2-7 5.5-10 7-3 1-5 4.5-4 7 1.5 2 5.5 6 8 8 2.5 1.5 8 8 11 13l6 10 1 1c.5 0 .5 2 0 4v3l-1-2v-6l-8-7c-3.5-4-10.5-8.5-14-9-3-.5-7.5-1-9-1s-1 2 1 4l10 8c2.5 2 6.5 6.5 8 9 2 2.5 3 8 2 11-1 2.5-3.5 8-5 11s-5.5 8-8 10c-2 2-6 4-8 4-1.5-.5-1.5-3.5 0-6 1.5-3 4.5-8.5 6-11 2-2.5 4-6.5 4-8l1-4-5 4c-2 2-6 6.5-8 9s-7 5.5-10 6c-2.5.5-7.5-.5-10-2-2.5-2-7-2.5-9-1s-7 4.5-10 6c-2.5 1.5-7 5.5-9 8s-5 8.5-6 12c-1 3-1.5 9-1 12l2 6-4-3c-1.5-2-2.5-7-2-10 1-3 3.5-9 5-12s4.5-8.5 6-11c1.5-3 4-9 5-12l6-12c1.5-3 1.5-5.5 0-5-1.5 0-2-1.5-1-3s4.5-4.5 7-6c2.5-2 6.5-4 8-4 1.5-.5 3-4.5 3-8 .5-4 2.5-10.5 4-13 1.5-3 3.5-9 4-12l1-6-4 5c-2 2-6 6.5-8 9-1.5 2.5-5 8-7 11-1.5 2.5-5.5 7-8 9-2 2-6 6.5-8 9s-5.5 8-7 11c-1.5 2.5-5 7.5-7 10-1.5 2.5-4 7.5-5 10l-2 5 4-2c2.5-1 6-2.5 7-3l2-1-4 5c-2 2-6 6.5-8 9-2 2-6 7-8 10-1.5 2.5-5 7.5-7 10-2 2-6.5 6-9 8s-8.5 5-12 6l-7 1 2-1c1-1 2-2.5 2-3 .5-1-2.5-1-6 0-3.5.5-12.5 2-18 3l-11 2v9h9c2.5-.5 4.5 0 4 1 0 .5-2 2-4 3-2 .5-5.5 1-7 1H0v7l8-3c4-2 7.5-2 7 0-.5 1.5-1 4.5-1 6 .5 1 2 1.5 3 1 1.5-.5 4.5-1 6-1 1.5-.5 4 1.5 5 4 1.5 2 5.5 2.5 8 1 3-1.5 8.5-4.5 11-6 3-2 9.5-3.5 13-3 3.5 0 7-1 7-2v-5c0-1 2-3.5 4-5 2-2 5-7 6-10l2-6 1 6c1 3 3 7 4 8 1.5 1 4 0 5-2 1.5-2.5 5-5 7-5 2-.5 2.5 2.5 1 6-1 3-1 6 0 6 1.5 0 5-2 7-4 2-2.5 6.5-7 9-9l5-4-1 4c-.5 1.5-3 6-5 9-1.5 2.5-2.5 7.5-2 10 1 2.5 3 8 4 11 1.5 3 4 9.5 5 13s5 8.5 8 10c3 1 6.5 3 7 4l2 1-4 1c-1.5.5 0 2.5 3 4 3 1 4.5 3 3 4-1 .5-4.5-.5-7-2l-10-8c-2.5-2-6-7-7-10-1-3.5-3-10-4-13-.5-3-2.5-6-4-6-1-.5-3 0-4 1-1 .5-4 .5-6 0s-6 0-8 1c-2 .5-3 2.5-2 4 1.5 1.5 3.5 6 4 9s2 9.5 3 13c1 3-.5 5-3 4l-4-3 3 5c1.5 2 3 7 3 10 0 2.5-2.5 7.5-5 10-2 2-6.5 6-9 8-2 2-6 6.5-8 9l-4 5 5-2c3-1 8.5-3 11-4 2.5-1.5 7-1 9 1l10 6c2.5 1 6-.5 7-3 1.5-3 4-7.5 5-9l2-4-2 5c-.5 2.5-2.5 8-4 11s-5.5 8-8 10c-2.5 1.5-10 3-15 3-4.5 0-11.5-1.5-14-3-2.5-2-7.5-5-10-6s-5-5.5-5-9c.5-3.5 3-9.5 5-12s5-7 6-9c1.5-2 4.5-6.5 6-9 1.5-3 3-8 3-10l1-5-3 6c-1.5 2.5-5 8-7 11-1.5 2.5-5.5 6.5-8 8-2.5 1-6 1-7 0-.5-1 1-4 3-6 2.5-2.5 4.5-6.5 4-8v-3l-4 5-8 10c-1.5 2.5-5 10-7 15l-3 9-1 4c-.5 1.5-1.5 3-2 3v-2c.5-1 1.5-2.5 2-3l1-2 1-6c.5-3.5 2-10.5 3-14s4-9 6-11c2-2.5 5.5-7.5 7-10 1.5-3 4.5-8.5 6-11 2-3 4.5-7.5 5-9l1-4-5 4-5 4 1-2c.5-1.5 3.5-4.5 6-6 3-1.5 5-4 4-5s-5-1.5-8-1c-3 0-9 1.5-12 3s-9 3.5-12 4c-2.5.5-7.5 0-10-1-2-1-4 1-4 4 .5 2.5 3 7 5 9 2.5 2 8 3.5 11 3l6-1-2 2c-.5 1-3 4-5 6-1.5 2-5.5 2-8 0-2-2.5-6.5-6.5-9-8-2.5-2-9-5-13-6l-7-3v9l6 1c3.5.5 9.5 3 12 5 2.5 1.5 8 4.5 11 6l7 2-4 2c-2 .5-4 .5-4 0 .5-1-2-3-5-4-2.5-1.5-9.5-2.5-14-2l-9 1v32l7 1c4 .5 7 2 6 3-1 .5-5 .5-8 0l-5-2v16h2c1.5 0 1.5 1.5 0 3l-2 2v34l6-2c3-1 8-2 10-2 2-.5 7-2 10-3l7-2-3 2c-1.5 1-5.5 4-8 6l-9 9c-2 2-6.5 6-9 8l-4 4v3l10-5 15-9c3-2 8.5-2.5 11-1 2.5 1 7 4.5 9 7s2 7.5 0 10c-2 2-6.5 6-9 8-2.5 1.5-7.5 5-10 7l-10 8c-2.5 1.5-8 4.5-11 6l-5 2v14l8-4c4-2.5 10.5-6.5 13-8l6-4h-5c-2 0-2-2 0-4 2.5-2 8-5.5 11-7s8-5 10-7c2.5-2 7-6 9-8 2.5-2.5 7.5-6.5 10-8 2.5-2 7.5-5.5 10-7l10-8c2.5-2 6-5 7-6 1.5-1 4.5-4 6-6l4-5v4c0 1.5-.5 7-1 11-.5 3.5.5 10 2 13l6 12c1.5 2.5 5 4.5 7 4 2.5-1 7-1 9 0 2.5 1 4.5 5 4 8 0 3 1.5 7.5 3 9s4.5.5 6-2c1.5-3 2-9 1-12s-4.5-8-7-10c-2-2-7-4-10-4-3-.5-6-3.5-6-6s.5-4.5 1-4c.5 0 3.5.5 6 1 2.5 0 7.5 1.5 10 3l10 6c2.5 1 7 4.5 9 7l8 10c2 2 5 4.5 6 5h2l-5-4-4-5 4 3c2.5 1.5 8 4 11 5 3.5.5 9-.5 11-2 2.5-1.5 7.5-2 10-1 3 1 8 4.5 10 7l10 8c2.5 1.5 8 4.5 11 6s4 5.5 2 8c-2 2-6 5.5-8 7l-3 3 6-1c3.5-1 9.5-1.5 12-1 2.5 0 7.5 1.5 10 3 3 1 7.5 4.5 9 7 2 2.5 6 6 8 7 2 .5 4.5 1 5 1 1-.5 0-3.5-2-6-1.5-2.5-5-7.5-7-10s-6.5-6.5-9-8c-2.5-2-7.5-5.5-10-7-2-1.5-6.5-5-9-7s-8-5-11-6c-3-1.5-8.5-5-11-7l-10-8c-2-2-7-4.5-10-5-3-1-5-3.5-4-5s5-2 8-1c3 .5 8.5 3 11 5 3 1.5 8 5 10 7 2.5 2 7 6 9 8 2.5 2 7.5 5 10 6l5 2-4-4c-1.5-2-5.5-6-8-8-2-2.5-6.5-7-9-9l-4-4 4 2c2.5 1 7 4.5 9 7l10 8c2.5 1.5 7 5.5 9 8l8 10c2 2 5.5 7 7 10 1.5 2.5 5 7.5 7 10s5.5 7.5 7 10c2 2.5 4.5 8 5 11 1 2.5 2 6 2 7 .5 1 3 4 5 6 2.5 2 6.5 7 8 10s3 9.5 3 13c0 3-2 9-4 12l-6 10-2 5 4-3 8-8c2.5-2.5 6.5-7.5 8-10 1.5-3 2-9 1-12s-2-7-2-8c.5-1-.5-4.5-2-7-1-2.5-4-7.5-6-10s-6-7-8-9l-8-10c-2-2.5-5-7-6-9-1-2.5-3.5-7.5-5-10-1.5-3-5-8.5-7-11s-5-6.5-6-8l-2-4 4 5c2.5 2 7 6 9 8 2.5 2 7 6.5 9 9 2 2 5.5 6.5 7 9l4 4-5-4c-2-2-4-2.5-4-1 .5 1 3 4.5 5 7l8 8c2.5 2 7 6.5 9 9 2.5 2 6.5 6.5 8 9l8 10c2.5 2 7 6.5 9 9l8 8 10 8c3 1.5 8.5 5 11 7 2.5 1.5 8 4 11 5l6 2-5-4c-2-2-6.5-6-9-8-2-2-6.5-6-9-8-2-2.5-4.5-6-5-7-.5-1.5 2-1.5 5 0s8.5 5 11 7c2.5 1.5 7 5 9 7l10 8c3 1.5 8.5 5 11 7 2.5 1.5 8 4.5 11 6s8.5 4.5 11 6c3 1.5 8.5 4.5 11 6 3 1.5 8.5 5 11 7 3 1.5 8.5 4.5 11 6l12 6c3.5 1 9.5 3.5 12 5 3 1.5 9.5 4 13 5 3.5.5 10.5 2 14 3 4 .5 11 2 14 3 3.5 1 10 3.5 13 5 3.5 1 9.5 4 12 6l6 4z"/>
    <path fill="#FFF" stroke="#FFF" stroke-width="1.5" d="M904 1440h536V478l-7-9c-3-4.5-7.5-11.5-9-14l-6-12c-1-3-3.5-9-5-12l-6-12c-1-3-3.5-9-5-12s-4.5-8.5-6-11c-1.5-3-4.5-8.5-6-11l-6-12c-1.5-3-4.5-8.5-6-11l-6-12-6-12c-1-3-3.5-8.5-5-11l-6-12c-1.5-3-4.5-8.5-6-11l-6-12c-1.5-3-4.5-8.5-6-11l-6-12c-1-3-3.5-9-5-12l-6-12c-1-3-3.5-9-5-12s-4.5-8.5-6-11c-1.5-3-4.5-8.5-6-11l-6-12c-1.5-3-4.5-8.5-6-11l-6-12c-1.5-3-4.5-8.5-6-11-1.5-3-4.5-8.5-6-11l-6-12c-1.5-3-4.5-8.5-6-11l-6-12c-1.5-3-4.5-8.5-6-11-1.5-3-4.5-8.5-6-11l-6-12c-1.5-3-4.5-8.5-6-11l-6-12c-1-3.5-3.5-9.5-5-12-1.5-3-4.5-8.5-6-11l-6-12c-1-3.5-4-12-6-17l-4-10H416l-3 6-6 12c-1.5 2.5-4.5 8-6 11-1.5 2.5-5 7.5-7 10l-8 10c-1.5 2.5-5 8-7 11-1.5 2.5-4.5 8-6 11-1.5 2.5-5 7.5-7 10-2 2-6 7-8 10-1.5 2.5-5 7.5-7 10-2 2-6 7-8 10-1.5 2.5-4.5 8-6 11-1.5 2.5-5 7.5-7 10-1.5 2.5-5 8-7 11-1.5 2.5-5.5 7-8 9-2 2-4.5 3.5-5 3s.5-3.5 2-6c2-3 5.5-8.5 7-11 2-2.5 5.5-7.5 7-10 1.5-3 4.5-8.5 6-11 2-3 5.5-8.5 7-11 2-2.5 5.5-7.5 7-10 2-3 5.5-8.5 7-11 2-2.5 5.5-7.5 7-10 2-2.5 5.5-8 7-11s4.5-8.5 6-11c2-2.5 5.5-7.5 7-10 2-3 5.5-8.5 7-11 2-2.5 5.5-7.5 7-10 1.5-3 4-10 5-14l2-8H0v572l7-3c4-2 10.5-6 13-8s7.5-5.5 10-7c2.5-2 6.5-6.5 8-9 2-2.5 5.5-7 7-9s3.5-5 4-6c.5-1.5 3-5.5 5-8s5.5-7.5 7-10c2-2.5 5.5-7.5 7-10 2-2.5 5.5-7.5 7-10 2-3 5.5-8.5 7-11 1.5-3 4-9 5-12 1.5-3.5 4.5-9.5 6-12 2-2.5 6.5-6.5 9-8 3-1.5 7.5-3 9-3h3l-5 4c-2 2-5.5 7-7 10s-5 8.5-7 11c-1.5 2.5-4.5 8-6 11-1.5 2.5-5 7.5-7 10s-5 7-6 9c-1 1.5-3 5.5-4 8s-3.5 8-5 11c-1.5 2.5-5 7.5-7 10-1.5 2.5-5 7.5-7 10l-8 10-9 9c-2 2-6.5 6-9 8-2 2-3.5 5.5-3 7 .5 1-1 4.5-3 7l-8 10c-1.5 2.5-5.5 6.5-8 8l-5 3v30l2 1h6c1.5 0 3.5.5 4 1 1 .5.5 1.5-1 2-1 .5-4.5 1-7 1H0v174h10c1.5 0 3 1 3 2s-1 2.5-2 3H4l-4-1v195l3-4c1.5-2.5 3.5-8 4-11s2.5-8.5 4-11c1.5-3 5-8.5 7-11s5.5-7.5 7-10c2-2.5 5.5-7.5 7-10 2-3 6-8 8-10l4-5v4c.5 2-1 7-3 10-1.5 2.5-4.5 8-6 11-1 3-3 10-4 14-.5 3.5-2.5 10-4 13-1 3-3.5 9-5 12-1.5 2.5-4.5 8-6 11s-4 9.5-5 13c-.5 3.5-3.5 8.5-6 10l-5 3v7l8 2c4.5 1 11 0 13-2 2-2.5 5-4 6-3s0 4.5-2 7c-2 2-9.5 4.5-15 5l-10 1v5l11-2c5.5-1 14.5-2.5 18-3 3.5-1 6.5-1 6 0 0 .5-1 2-2 3l-2 1 7-1c3.5-1 9.5-4 12-6s7-6 9-8c2-2.5 5.5-7.5 7-10 2-3 6-8 8-10 2-2.5 6-7 8-9l4-5-2 1c-1 .5-4.5 2-7 3l-4 2 2-5c1-2.5 3.5-7.5 5-10 2-2.5 5.5-7.5 7-10 1.5-3 5-8.5 7-11s6-7 8-9c2.5-2 6.5-6.5 8-9 2-3 5.5-8.5 7-11 2-2.5 6-7 8-9l4-5-1 6c-.5 3-2.5 9-4 12-1.5 2.5-3.5 9-4 13 0 3.5-1.5 7.5-3 8-1.5 0-5.5 2-8 4-2.5 1.5-6 4.5-7 6s-.5 3 1 3c1.5-.5 1.5 2 0 5l-6 12c-1 3-3.5 9-5 12-1.5 2.5-4.5 8-6 11s-4 9-5 12c-.5 3 .5 8 2 10l4 3-2-6c-.5-3 0-9 1-12 1-3.5 4-9.5 6-12s6.5-6.5 9-8c3-1.5 8-4.5 10-6s6.5-1 9 1c2.5 1.5 7.5 2.5 10 2 3-.5 8-3.5 10-6s6-7 8-9l5-4-1 4c0 1.5-2 5.5-4 8-1.5 2.5-4.5 8-6 11-1.5 2.5-1.5 5.5 0 6 2 0 6-2 8-4 2.5-2 6.5-7 8-10s4-8.5 5-11c1-3 0-8.5-2-11-1.5-2.5-5.5-7-8-9l-10-8c-2-2-2.5-4-1-4s6 .5 9 1c3.5.5 10.5 5 14 9l8 7-6-10c-3-5-8.5-11.5-11-13-2.5-2-6.5-6-8-8-1-2.5 1-6 4-7 3-1.5 8-5 10-7 2-2.5 4.5-7 5-9s.5-7.5 0-11l-2-16c-.5-4-2-11.5-3-15-.5-3.5-2-10-3-13-1-3.5-5-6-8-5-2.5.5-3.5-1.5-2-4 2-2.5 3.5-7 3-9 0-2.5 2-3.5 4-2 2.5 1.5 5.5 6.5 6 10 1 3.5 2.5 11 3 15l1 8v-6c.5-3 .5-10 0-14 0-4.5.5-12.5 1-16 1-3.5 2.5-10.5 3-14 .5-4 2-11.5 3-15s2.5-10.5 3-14l4-14c1-3.5 3-10 4-13 1.5-3 4-9 5-12 1.5-3 4-9 5-12 1.5-3.5 4.5-9.5 6-12l6-12c1.5-3 4.5-8.5 6-11 1.5-3 4.5-8.5 6-11 2-2.5 5.5-7.5 7-10 2-3 5.5-8.5 7-11l8-10c2-2.5 5.5-7.5 7-10 2-2.5 6-7 8-9l8-10c2-2.5 6-7 8-9 2.5-2 7-6 9-8l9-9c2.5-2 7-6 9-8l10-8c2.5-2 7-6 9-8l10-8c2.5-2 7.5-5.5 10-7 2.5-2 7.5-5.5 10-7 2.5-2 7.5-5.5 10-7 3-2 8.5-5.5 11-7 2.5-2 7.5-5.5 10-7 3-2 8.5-5.5 11-7 3-1.5 8.5-4.5 11-6l12-6c3-1.5 8.5-4.5 11-6 3-1.5 9-4 12-5 3.5-1.5 10.5-2.5 14-2 4 .5 9.5 3.5 11 6 2 2.5 5 8.5 6 12 1.5 3 3.5 9.5 4 13l4 14c1 3.5 3 10 4 13 1.5 3 4 9 5 12l6 12c1.5 3 4.5 8.5 6 11 2 2.5 5.5 8 7 11l8 10c2 2 6 6.5 8 9 2 2 6 6.5 8 9 2.5 2 7 6 9 8 2.5 2 7 5.5 9 7 2.5 1 7.5 3.5 10 5 2.5 1 7.5 4 10 6 2.5 1.5 8 4.5 11 6s8.5 4.5 11 6l12 6c3 1.5 8.5 4.5 11 6 3 1.5 9 4 12 5 3.5 1 9.5 4 12 6 3 1.5 6 4.5 6 6 0 1-3 .5-6-1s-9.5-4-13-5c-3-1-9.5-3-13-4s-10-3.5-13-5c-2.5-1.5-8-3.5-11-4-3-1-10-2-14-2-3.5-.5-10-2.5-13-4-2.5-1.5-8-4.5-11-6-2.5-2-7.5-5.5-10-7l-10-8c-2-2-6.5-6-9-8-2-2.5-6.5-7-9-9-2-2-6-6.5-8-9l-8-10c-1.5-2.5-5-7.5-7-10-1.5-2.5-5-7.5-7-10l-6-12c-1-3-3.5-9-5-12-1-3.5-3-10-4-13l-4-14c-.5-3.5-2-10.5-3-14-.5-4-3-10-5-12-1.5-2-6.5-2.5-10-1-3 1-9 3.5-12 5-2.5 1.5-8 4.5-11 6-2.5 1.5-8 4.5-11 6l-12 6c-2.5 1.5-8 4.5-11 6s-8.5 5-11 7c-2.5 1.5-7.5 5-10 7-2.5 1.5-8 5-11 7-2.5 1.5-7.5 5-10 7-2 2-7 6-10 8-2.5 1.5-7.5 5-10 7-2 2-6.5 6-9 8-2 2-6.5 6-9 8s-7 6.5-9 9l-9 9c-2 2-6 6.5-8 9-2 2-6 6.5-8 9-2 2-6 6.5-8 9l-8 10c-1.5 2.5-5 7.5-7 10s-5.5 8-7 11c-1.5 2.5-5 7.5-7 10-1.5 2.5-4.5 8-6 11l-6 12c-1.5 2.5-4.5 8-6 11l-6 12c-1 3-3 9.5-4 13-1 3-3.5 9.5-5 13-1 3-3 9.5-4 13-.5 3.5-2 10.5-3 14s-2.5 11-3 15c-.5 3.5-1.5 11-2 15 0 4-.5 12-1 16s-.5 12 0 16c.5 3.5 1 11.5 1 16s.5 13 1 17l2 14 4 14 4 14c1 3 3 9.5 4 13 1.5 3 4 9.5 5 13 1 3 3.5 9 5 12 1.5 2.5 4.5 8 6 11l6 12c1.5 2.5 5 7.5 7 10s5.5 8 7 11l6 10 8 10 8 10c2 2 6 6.5 8 9s6 7 8 9c2.5 2 7 6.5 9 9 2 2 6.5 6 9 8s7 6 9 8l10 8 10 8c2.5 1.5 7 5 9 7l10 8c3 1.5 8.5 5 11 7 2.5 1.5 7.5 5 10 7 3 1.5 8.5 4.5 11 6 3 1.5 8.5 4.5 11 6l12 6c3 1.5 8.5 4.5 11 6l12 6 12 6c3 1 9 3.5 12 5 3 1 9 3.5 12 5 3.5 1 10 3 13 4 3.5 1 10 3.5 13 5 3.5 1 10 3 13 4 3.5 1 10 3.5 13 5 3 1 9.5 3 13 4l14 4c3.5.5 10.5 2 14 3l14 4c3.5.5 10.5 2 14 3 3.5.5 10.5 2 14 3 4 .5 11.5 1.5 15 2 4 .5 11.5 2 15 3 4 .5 11.5 1.5 15 2l16 2c4 0 12 .5 16 1l16 2c4 0 12 .5 16 1 4.5 0 13 .5 17 1h69c4.5 0 12.5-.5 16-1 4-.5 12-1 16-1h17c4.5-.5 12.5-1.5 16-2l16-2c4-.5 11.5-1.5 15-2 4-.5 11.5-1.5 15-2 4-.5 11.5-1.5 15-2 4-1 11.5-2.5 15-3 3.5-1 11-2 15-2 4.5-.5 12.5-1.5 16-2 3.5-1 10-3 13-4l14-4c3.5-1 10.5-2.5 14-3l14-4c3.5-1 10.5-2.5 14-3 3.5-1 10-3 13-4 3-1.5 9.5-4 13-5s10-3 13-4c3-1.5 9-4 12-5 3.5-1.5 10-4 13-5 3-1.5 9-4 12-5 3-1.5 9.5-4 13-5s9.5-3.5 12-5l12-6c3-1.5 8.5-4.5 11-6 3-1.5 8.5-4.5 11-6l12-6c3-1.5 8.5-4.5 11-6 3-1.5 8.5-5 11-7s7.5-5.5 10-7c3-1.5 8.5-4.5 11-6 2.5-2 7-6 9-8 2.5-2.5 7.5-6.5 10-8 2.5-2 7-6 9-8l9-9c2.5-2 7-6 9-8 2-2.5 6-7 8-9l9-9c2.5-2 7-6.5 9-9s6-7 8-9c2-2.5 6-7 8-9 2-2.5 5.5-7.5 7-10 2-3 6-8 8-10 2-2.5 5.5-7.5 7-10 2-3 5.5-8.5 7-11 2-2.5 5.5-7.5 7-10l6-12c1.5-3 4-9 5-12l6-12c1.5-3 4-9 5-12 1.5-3 3.5-9.5 4-13l4-14c1-3.5 2.5-10.5 3-14 1-3.5 2.5-11 3-15s1-12 1-16c.5-4 1.5-11.5 2-15 .5-4 .5-12 0-16 0-4.5-.5-12.5-1-16l-2-16c-.5-4-2-11.5-3-15-.5-3.5-2-10-3-13l-4-14c-1-3.5-3.5-10-5-13-1-3-3.5-9-5-12l-6-12c-1-3-3.5-8.5-5-11-1.5-3-5-8.5-7-11-1.5-3-4.5-8.5-6-11-1.5-3-5-8.5-7-11l-8-10c-1.5-2.5-5-7-7-9l-8-10c-1.5-3-5-8.5-7-11-1.5-2.5-4-8-5-11-.5-3.5 1-6.5 3-6h4l-1-7c-.5-4-1-12.5-1-17s-.5-12-1-15c-.5-3.5-2-10.5-3-14-.5-3.5-2.5-10-4-13s-5-8-7-10c-2-2.5-6.5-7-9-9s-8-5-11-6c-3-1.5-9.5-4-13-5-3-1-10-2.5-14-3-3.5-1-10.5-2.5-14-3-3.5-1-11-2.5-15-3-3.5-1-11-2.5-15-3l-14-2c-3.5-1-11-2.5-15-3l-16-2c-3.5-.5-11-1.5-15-2-3.5-1-11-2.5-15-3-3.5-.5-11-1-15-1-4-.5-11-2.5-14-4s-8-5-10-7c-2-2.5-4-8-4-11 .5-3.5 1.5-10 2-13l2-14c1-3.5 2.5-10.5 3-14 1-4 2-12 2-16l2-16c.5-4 0-11.5-1-15-.5-3.5-2-10.5-3-14-.5-3.5-2.5-10-4-13s-4.5-8.5-6-11c-1.5-3-5.5-8-8-10-2-2.5-6-7-8-9-2-2.5-6-7-8-9-2-2.5-6.5-7-9-9s-7.5-5.5-10-7c-2.5-2-8-5.5-11-7-2.5-1.5-8-4.5-11-6-2.5-2-8-5.5-11-7-2.5-1.5-8.5-4-12-5-3-1.5-9-4-12-5-3-1.5-9.5-4-13-5-3-1-9.5-3-13-4-3-1.5-9.5-4-13-5-3-1-10-2.5-14-3-3.5-1-10.5-2.5-14-3-3.5-1-10.5-2.5-14-3-3.5-1-11-2.5-15-3-3.5-1-11-2.5-15-3-3.5-.5-11-1.5-15-2-3.5-1-11.5-2-16-2h-16c-4-.5-12.5-1-17-1-4-.5-12-1-16-1h-16c-4-.5-12-.5-16 0-3.5.5-11 1.5-15 2-4 0-12 .5-16 1l-16 2c-4 0-12 1-16 2-3.5.5-11 1.5-15 2-3.5.5-10.5 2-14 3-3.5.5-11 2-15 3-3.5.5-10.5 2-14 3-3.5.5-10.5 2-14 3l-14 4c-3.5.5-10 2.5-13 4-3 1-9 3.5-12 5s-9.5 4-13 5c-3 1-9 3.5-12 5l-12 6c-2.5 1.5-8 4.5-11 6-2.5 1.5-8 4.5-11 6s-8.5 5-11 7c-2 2-7 6-10 8-2.5 1.5-7.5 5-10 7-2 2-6 6.5-8 9-2 2-6 6.5-8 9l-8 10c-1.5 2.5-4.5 8-6 11s-4 9.5-5 13c-1 3-3 9.5-4 13-1 3-2.5 10.5-3 15 0 4 .5 12 1 16 .5 3.5 2 10.5 3 14s3 10 4 13c1.5 3 5 8.5 7 11 2 2 6 6.5 8 9 2.5 2 7 6 9 8l10 8 10 8c2.5 1.5 7.5 5 10 7 2.5 1.5 7.5 5 10 7 3 1.5 8.5 4.5 11 6l12 6 12 6c3 1 9 3.5 12 5 3 1 9 3.5 12 5 3.5 1 10 3 13 4l14 4c3.5 1 10 3 13 4 3.5 1 10.5 2.5 14 3l16 2c4 .5 11.5 2 15 3 3.5.5 11 1.5 15 2s11.5 2 15 3c3.5.5 11 1.5 15 2h86l16-2c4-.5 12-1 16-1 4-.5 11.5-1.5 15-2 4-1 11.5-2.5 15-3 4-.5 11.5-1.5 15-2 3.5-1 10.5-2.5 14-3 4-1 11.5-2.5 15-3l14-4c3.5-1 10-3 13-4 3.5-1 10-3 13-4l14-4c3.5-1 10-3 13-4l12-6c3-1.5 9-4 12-5 3.5-1 9.5-3.5 12-5 3-1.5 8.5-4.5 11-6 3-2 8.5-5.5 11-7 2.5-2 7-4.5 9-5l4-1-4 5c-1.5 2.5-5 7.5-7 10-2 2-6.5 6-9 8l-10 8c-2.5 1.5-5 4.5-5 6s-2 5.5-4 8c-1.5 2.5-6 6.5-9 8-3 1-9.5 3.5-13 5-3 1-9.5 3-13 4-3.5.5-11 2-15 3-3.5.5-10.5 2-14 3-3.5.5-10.5 2-14 3-3 1-10 3-14 4-3.5.5-10.5 2-14 3-3.5.5-11 2-15 3-3.5.5-11 1.5-15 2-4 0-12 .5-16 1-3.5.5-11 1.5-15 2s-11.5 2-15 3c-3 1-10.5 2.5-15 3-4 0-12 .5-16 1-3.5.5-11.5 1-16 1-4 0-12.5.5-17 1-4 0-12-.5-16-1-3.5-.5-11-1.5-15-2l-16-2-14-2c-3.5-1-11-2.5-15-3-3.5-1-10.5-2.5-14-3-3.5-1-11-2.5-15-3-3.5-1-10.5-2.5-14-3-3.5-1-10.5-2.5-14-3-3.5-1-11-2.5-15-3-3.5-1-7.5-1-8 0-.5.5 2.5 2 6 3 3.5.5 10.5 2 14 3l14 4c3.5.5 10.5 2 14 3l14 4c3.5.5 10.5 2 14 3 3.5.5 10.5 2 14 3 4 .5 11.5 2 15 3 3.5.5 10.5 2 14 3s10.5 2.5 14 3c4 .5 10 1.5 12 2h4l-6 3c-3 1.5-9.5 3.5-13 4-3 .5-10 1-14 1s-11-1-14-2c-3-1.5-10-3.5-14-4-3.5-.5-10 .5-13 2s-9 3-12 3c-3-.5-6.5-3-7-5 0-2.5-4-5-8-5-3.5 0-10.5-1-14-2-3-1-10-2.5-14-3-3.5-1-10.5-1.5-14-1-3.5 0-10 .5-13 1s-7-1.5-8-4c-.5-2.5-4.5-6-8-7l-12-4c-3-1-9-3.5-12-5-2.5-1.5-8-4.5-11-6-2.5-2-8-5-11-6-3-1.5-8.5-4.5-11-6-2.5-2-8-5.5-11-7s-8-5-10-7l-8-10c-2-2.5-5-7-6-9-1-2.5-4.5-7-7-9-2-2-6-6.5-8-9l-8-10c-1.5-2.5-5-7.5-7-10-1.5-3-4.5-8.5-6-11l-6-12c-1-3-3-9.5-4-13l-4-14c-.5-3.5-1-11.5-1-16s.5-12.5 1-16c1-3.5 2.5-10.5 3-14 1-3.5 3.5-10 5-13s4.5-8.5 6-11c1.5-3 4.5-8.5 6-11 2-3 6-8 8-10 2-2.5 5.5-7.5 7-10 2-2.5 6-7 8-9 2.5-2.5 7.5-6.5 10-8l10-8c2.5-2 7.5-5.5 10-7 3-1.5 8.5-4.5 11-6l12-6c3-1.5 8.5-4.5 11-6l12-6c3-1.5 9-4 12-5 3.5-1 10-3 13-4 3-1.5 9.5-4 13-5s10-3 13-4l14-4c3.5-1 10.5-2.5 14-3 3.5-1 10.5-2.5 14-3 3.5-1 10.5-2.5 14-3 4-1 11.5-2.5 15-3 3.5-1 10.5-2.5 14-3 4-1 12-2 16-2 4-.5 11.5-1.5 15-2 4-.5 12.5-1 17-1h69c4.5 0 13 .5 17 1s12 1 16 1c4.5 0 13 .5 17 1s11.5 1.5 15 2c4 .5 11.5 2 15 3 3.5.5 10.5 2 14 3 4 .5 11.5 2 15 3 3.5.5 10.5 2 14 3 4 .5 11.5 2 15 3 3.5.5 10 2.5 13 4 3 1 9.5 3 13 4s10 3.5 13 5c3 1 9 3.5 12 5l12 6c3 1 8.5 3.5 11 5 3 1.5 8.5 5 11 7 3 1.5 8.5 5 11 7 2.5 1.5 7.5 5 10 7l10 8c2.5 1.5 7 5.5 9 8 2 2 6 6.5 8 9s5.5 7.5 7 10c2 2.5 5.5 8 7 11 2 2.5 5 8 6 11 1.5 3 3.5 9.5 4 13 1 3.5 2.5 11 3 15 1 3.5 2 11.5 2 16 0 4-.5 12.5-1 17 0 4-.5 12-1 16-.5 3.5-2 10.5-3 14-.5 3.5-1.5 11.5-2 16 0 4 2 10.5 4 13 2 2 7 5.5 10 7 3.5 1 10.5 2.5 14 3 4 .5 11.5 1.5 15 2 4 .5 11.5 2 15 3 4 .5 11.5 2 15 3 3.5.5 11 1.5 15 2 4.5 0 12.5 1 16 2 3.5.5 10.5 2 14 3 3.5.5 10.5 2 14 3 4 .5 11.5 2 15 3 3.5.5 10.5 2 14 3s10 3.5 13 5c3 1 8.5 3.5 11 5 3 1.5 8.5 5 11 7s6.5 6.5 8 9c2 2.5 5.5 8 7 11s3.5 9.5 4 13c1 3.5 2.5 10.5 3 14 1 3.5 1.5 11.5 1 16 0 4-.5 12-1 16-.5 3.5-3.5 9-6 11l-4 3 5 7c2.5 3 7 8.5 9 11l8 10c2 2 6 6.5 8 9 2.5 2 6.5 6.5 8 9 2 2.5 5.5 8 7 11 1.5 2.5 5 7.5 7 10s5.5 8 7 11c1.5 2.5 4.5 8 6 11s4 9 5 12c1.5 3 4 9 5 12 1.5 3 4 9.5 5 13 1.5 3 4 9.5 5 13 1 3 2.5 10 3 14 1 3.5 2.5 10.5 3 14 1 3.5 2.5 11 3 15 .5 3.5 1 11.5 1 16 .5 4 1 12.5 1 17v17c0 4.5-.5 13-1 17 0 4-1 11.5-2 15-.5 3.5-2 11-3 15-.5 3.5-2 10.5-3 14-.5 3.5-2.5 10.5-4 14-1 3-3 9.5-4 13-1 3-3.5 9-5 12-1 3-3.5 9-5 12l-6 12c-1.5 2.5-4.5 8-6 11l-6 12c-1.5 2.5-4.5 8-6 11-1.5 2.5-5 7.5-7 10l-8 10c-1.5 2.5-5 7.5-7 10l-8 10c-1.5 2.5-5 7.5-7 10-1.5 2.5-5.5 7.5-8 10-2 2-6 6.5-8 9l-9 9c-2 2-6 6.5-8 9-2 2-6.5 6-9 8-2 2-6 6.5-8 9s-3.5 7.5-3 10c1 2.5 2.5 8.5 3 12s-.5 10-2 13c-1 3-3.5 9-5 12-1.5 2.5-5.5 7.5-8 10-2 2-6.5 6-9 8-2 2-4.5 1.5-5-1s.5-7.5 2-10c2-2.5 6-7 8-9 2-2.5 5-8 6-11 1.5-3.5 1-7.5-1-8-1.5-.5-5.5 1.5-8 4-2 2-5 7.5-6 11-1 3-3 9.5-4 13-1 3-3 9.5-4 13-.5 3-1.5 10-2 14-.5 3.5-3 10-5 13-1.5 2.5-1.5 5 0 5 1.5-.5 3 .5 3 2 0 1-2 5-4 8-1.5 2.5-4.5 8-6 11-1 3-3.5 9-5 12s-5 8.5-7 11c-2 2-6 6.5-8 9-1.5 2.5-5 8-7 11-1.5 2.5-4.5 8-6 11-1 3-4.5 8.5-7 11-2 2-6 6.5-8 9-2 2-6 6.5-8 9-1.5 2.5-5 7.5-7 10s-6.5 7-9 9c-2 2-6.5 6-9 8l-10 8c-2 2-6.5 6-9 8-2 2-7 6-10 8-2.5 1.5-8 4.5-11 6-3 1-9.5 3.5-13 5-3 1-9 3.5-12 5l-9 3h-3l5-3c3-2 8.5-5.5 11-7 3-1.5 8.5-4.5 11-6 3-2 8.5-5.5 11-7 3-1.5 8-5 10-7 2.5-2 7-6.5 9-9s6-7 8-9c2.5-2 7.5-5 10-6 2.5-1.5 7.5-5 10-7s6.5-6.5 8-9l8-10c2-2.5 6-7 8-9 2.5-2 4-6 3-8-.5-2 .5-7 2-10s4.5-8.5 6-11c1.5-3 5-8.5 7-11s5.5-7.5 7-10c2-2.5 5.5-7.5 7-10 2-2.5 5-8 6-11 1.5-3.5 4-10 5-13l6-12c1.5-3 2.5-9.5 2-13v-14c.5-3.5 2-10 3-13l3-7-3 2c-1 1-4 5-6 8-1.5 2.5-4 8-5 11-1 2.5-2 8-2 11 .5 3 .5 8.5 0 11 0 2 1.5 3 3 2l4-2-4 6c-1.5 2.5-5 7.5-7 10-1.5 2.5-5 7.5-7 10-1.5 2.5-4 8-5 11s-4 8.5-6 11c-1.5 2.5-5 8-7 11-1.5 2.5-4.5 8-6 11-1.5 2.5-4.5 8-6 11-1 3-4 8.5-6 11l-8 10-9 9c-2 2-6.5 6-9 8-2.5 1.5-7.5 5-10 7l-9 9c-2 2-6 6.5-8 9l-9 9c-2 2-6.5 6-9 8-2.5 1.5-7.5 5-10 7-2.5 1.5-7.5 5-10 7l-10 8c-2 2-6.5 6-9 8s-8 5.5-11 7c-2.5 1.5-8 4.5-11 6-3 1-9.5 3.5-13 5-3 1-9 3.5-12 5-3 1-10 3-14 4-3.5.5-10.5 2-14 3-3.5.5-10.5 2-14 3-3 1-9.5 2.5-13 3s-10 .5-13 0c-3-1-10 0-14 2l-8 3z"/>
    <path fill="#455A64" stroke="#455A64" stroke-width="1.5" d="M450 1413c-8.5-4.5-14-7.5-17-9l-12-6c-2.5-1.5-5.5-2-6-1 0 1 2.5 4 5 6l12 6c3 1 9 3.5 12 5l7 2-1-1v-2zm-47-11c-10.5-.5-17-2.5-20-4l-12-6c-2.5-1.5-8-3-11-3l-6-1 5 5c3 2 8.5 6 11 8 2.5 1.5 8.5 3.5 12 4s10 .5 13 0c3.5-.5 7-1.5 7-2l1-1z"/>
    <path fill="#FFF" stroke="#FFF" stroke-width="1.5" d="M1005 1395c9-2 14-4.5 16-6l4-4-6 3-10 5-4 2z"/>
    <path fill="#455A64" stroke="#455A64" stroke-width="1.5" d="M280 1391c7.5-3.5 12-7 14-9 2-2.5 3.5-6 3-7s-3.5 0-6 2c-2 2-6 6.5-8 9l-3 5zm-280 0c9-3 14-6 16-8 2-2.5 5.5-7.5 7-10 2-3 6-8 8-10 2-2.5 3.5-6.5 3-8v-3l-5 5c-2 2-6 6.5-8 9-2 2-8.5 7-13 10l-8 5v10zm351-4l3 1-4-2-3-2 2 2 2 1zm-162-9c7.5-5 12-9 14-11l5-5-4 1c-1.5.5-5.5 3-8 5-2 2-7 6-10 8l-5 3h4l4-1zm164-5c-8.5-4.5-13.5-8-16-10s-7.5-5.5-10-7l-10-8c-2-2-6.5-6-9-8l-5-4 3 5 8 10c2.5 2 7 6 9 8 2.5 2 7.5 5.5 10 7l12 6c3 1.5 6.5 2.5 7 2l1-1z"/>
    <path fill="#455A64" stroke="#455A64" stroke-width="1.5" d="M0 1376v1h1c1 0 4-1 6-2l4-3h-1c-.5 0-3.5.5-6 1l-4 1v2zm308-12l3-4-2 2-1 2zM0 1348v1l6-1c3.5-1 9-4 11-6 2.5-2.5 3-5 1-5-1.5 0-7 1.5-11 3l-7 2v6zm220-11c7.5-5 12.5-9 15-11s7-6 9-8c2.5-2 3.5-5 2-6-1-1-4 .5-6 3s-6.5 7-9 9c-2.5 1.5-8 5-11 7-2.5 1.5-4 4-3 5l3 1zm23 0c6.5-6 11-10 13-12 2.5-2.5 5.5-7.5 6-10l2-5-4 4c-2 1.5-6 5.5-8 8s-7 6.5-10 8c-2.5 1.5-3.5 4-2 5l3 2zm-243-7v1h2c1 0 5-1 8-2 3-1.5 8-5 10-7l5-5-6 3c-3 1-9.5 3-13 4l-6 2v4zm111-45l2-3-1 2-1 1z"/>
    <path fill="#FFF" stroke="#FFF" stroke-width="1.5" d="M0 1267c8-3.5 13.5-6.5 16-8l10-8c2.5-2 7.5-5.5 10-7 2.5-2 7-6 9-8 2-2.5 2-7.5 0-10s-6.5-6-9-7c-2.5-1.5-8-1-11 1l-15 9-10 5v33zm227-28c-5.5-7.5-9.5-12-12-14l-10-8c-2-2-4.5-4-5-4v-1l-5-1c-2-.5-3.5.5-3 2s-.5 3.5-2 4c-1.5 0-5.5-2-8-4-2-2.5-6.5-7-9-9-2-2-7-5-10-6-3-1.5-8.5-5-11-7s-8-5.5-11-7c-2.5-1.5-8-3-11-3l-5-1 5 3c3 1.5 8.5 4.5 11 6 3 1.5 8 5.5 10 8s7 5.5 10 6c3.5.5 9.5 3 12 5l10 8c2.5 1.5 8 4.5 11 6 3 1 8.5 3.5 11 5 3 1 8.5 4 11 6 2.5 1.5 7 5.5 9 8l4 5-1-3-1-4z"/>
    <path fill="#455A64" stroke="#455A64" stroke-width="1.5" d="M11 1235c10.5-2 17.5-2.5 21-2s6.5 0 6-1c0-1-2.5-2.5-5-3-2.5-1-8.5-1-12 0s-10 3.5-13 5l-5 3 4-1 4-1zm776 6c12-.5 20.5-1 25-1h9l-3-1c-1.5-1-7.5-2-12-2-4 0-12.5.5-17 1h-8l3 2 3 1zm-99-6c-12-.5-20-1.5-24-2s-12-1-16-1c-4-.5-7.5 0-7 1 1 1 6 2.5 10 3l16 2c4 0 11-.5 14-1l7-2z"/>
    <path fill="#FFF" stroke="#FFF" stroke-width="1.5" d="M157 1237l8-7-4 2c-1.5 1-3.5 3-4 4v1zm-157-6c6.5-6 11-10 13-12l9-9c2.5-2 6.5-5 8-6l3-2-7 2c-3 1-8 2.5-10 3-2 0-7 1-10 2l-6 2v20z"/>
    <path fill="#455A64" stroke="#455A64" stroke-width="1.5" d="M937 1226c10.5-2 17.5-3.5 21-4 4-1 11.5-2.5 15-3 3.5-1 10-3 13-4l6-3-8 1c-4 .5-11.5 2-15 3-3.5.5-11 1.5-15 2s-11.5 2-15 3c-3.5.5-10 2.5-13 4l-6 2h8l9-1z"/>
    <path fill="#FFF" stroke="#FFF" stroke-width="1.5" d="M157 1225c6-5 7.5-8 7-9-.5-1.5-3 0-5 3-1.5 2.5-3 5.5-3 6h1zm-105-2c5-6 7-11 7-14 0-3.5-2.5-5-5-3s-4.5 7.5-4 11l2 6zm93-10c6-5 6-8 4-9-1.5-1-3.5.5-4 3s-1 5.5-1 6h1zm53-2l2 1-2-5c-1-2.5-4.5-5.5-7-6l-4-1 4 5c2.5 2 5.5 4.5 6 5l1 1zm-158-11h-1 1zm-22-1c-3-2-4-2.5-4-2l2 2h2zm179 0l-3-4 1 2 2 2zm-130-8c-6-6.5-9-12.5-10-16l-2-7-2 5c-1 2-4 6-6 8-1.5 2-2 6.5-1 9 1.5 2 4 2 5 0 1.5-2 5-1.5 7 1s5 4 6 3l3-3zm29-14c7.5-5 11.5-10 13-13s3.5-8.5 4-11l2-5-2 4c-1 1.5-3.5 6-5 9-1 2.5-4.5 4-7 3l-10-6c-2-2-6.5-2.5-9-1-2.5 1-8 3-11 4l-5 2 4-5c2-2.5 6-7 8-9 2.5-2 7-6 9-8 2.5-2.5 5-7.5 5-10 0-3-1.5-8-3-10l-3-5 4 3c2.5 1 4-1 3-4-1-3.5-2.5-10-3-13s-2.5-7.5-4-9c-1-1.5 0-3.5 2-4 2-1 6-1.5 8-1s5 .5 6 0c1-1 3-1.5 4-1 1.5 0 3.5 3 4 6 1 3 3 9.5 4 13 1 3 4.5 8 7 10l10 8c2.5 1.5 6 2.5 7 2 1.5-1 0-3-3-4-3-1.5-4.5-3.5-3-4l4-1-2-1c-.5-1-4-3-7-4-3-1.5-7-6.5-8-10s-3.5-10-5-13c-1-3-3-8.5-4-11-.5-2.5.5-7.5 2-10 2-3 4.5-7.5 5-9l1-4-5 4c-2.5 2-7 6.5-9 9-2 2-5.5 4-7 4-1 0-1-3 0-6 1.5-3.5 1-6.5-1-6-2 0-5.5 2.5-7 5-1 2-3.5 3-5 2-1-1-3-5-4-8l-1-6-2 6c-1 3-4 8-6 10-2 1.5-4 4-4 5v5c0 1-3.5 2-7 2-3.5-.5-10 1-13 3-2.5 1.5-8 4.5-11 6-2.5 1.5-6.5 1-8-1-1-2.5-3.5-4.5-5-4-1.5 0-4.5.5-6 1-1 .5-2.5 0-3-1 0-1.5.5-4.5 1-6 .5-2-3-2-7 0l-8 3v20l7 3c4 1 10.5 4 13 6 2.5 1.5 7 5.5 9 8 2.5 2 6.5 2 8 0 2-2 4.5-5 5-6l2-2-6 1c-3 .5-8.5-1-11-3-2-2-4.5-6.5-5-9 0-3 2-5 4-4 2.5 1 7.5 1.5 10 1 3-.5 9-2.5 12-4s9-3 12-3c3-.5 7 0 8 1s-1 3.5-4 5c-2.5 1.5-5.5 4.5-6 6l-1 2 5-4 5-4-1 4c-.5 1.5-3 6-5 9-1.5 2.5-4.5 8-6 11-1.5 2.5-5 7.5-7 10-2 2-5 7.5-6 11s-2.5 10.5-3 14l-1 6 3-9c2-5 5.5-12.5 7-15l8-10 4-5v3c.5 1.5-1.5 5.5-4 8-2 2-3.5 5-3 6 1 1 4.5 1 7 0 2.5-1.5 6.5-5.5 8-8 2-3 5.5-8.5 7-11l3-6-1 5c0 2-1.5 7-3 10-1.5 2.5-4.5 7-6 9-1 2-4 6.5-6 9s-4.5 8.5-5 12c0 3.5 2.5 8 5 9s7.5 4 10 6c2.5 1.5 9.5 3 14 3h10zm-96-1v1l2-2c1.5-1.5 1.5-3 0-3H0v4zm161-11c-6-6.5-11-8-14-7s-9 2.5-12 3c-3 0-5 1.5-4 3 1.5 1.5 6 3.5 9 4 3.5 0 10 .5 13 1 3.5.5 7 0 7-1l1-3zm-126 3c.5 0 1.5-1.5 2-3l1-4-1 2c-.5.5-1.5 2-2 3v2zm80-3l6-5-3 3-3 2zm1094-3l1-2-1 1v1zm-1198-3c3-2 0-3.5-4-4l-7-1v2l5 2 6 1zm144-20c7.5-2 11-4 12-5l2-3-6 4c-2.5 1.5-6 3.5-7 4h-1z"/>
    <path fill="#455A64" stroke="#455A64" stroke-width="1.5" d="M387 1130c-7.5-5-12.5-9-15-11l-10-8c-2-2-6.5-5.5-9-7l-10-8-10-8c-2-2-6.5-6-9-8-2-2.5-6.5-7-9-9l-8-8-8-10c-2-2.5-6-7-8-9l-8-10c-2-2.5-5.5-7.5-7-10-1.5-3-5-8.5-7-11-1.5-2.5-5-7.5-7-10-1.5-3-4.5-8.5-6-11l-6-12c-1-3.5-3.5-9.5-5-12-1.5-3-5-7.5-7-9l-4-4 2 7 4 14c1 3 3 9.5 4 13 1.5 3 4.5 8.5 6 11 2 2.5 5.5 7.5 7 10 2 2.5 5.5 8 7 11 2 2.5 5.5 8 7 11 1.5 2.5 4.5 8 6 11l8 10c2 2 5.5 6.5 7 9l8 10 8 10c2 2 6.5 6 9 8s7 6 9 8l10 8c2.5 1.5 7.5 5 10 7 3 1.5 8.5 5 11 7 2.5 1.5 7.5 5 10 7l12 6c3 1 6.5 1 7 0l1-3z"/>
    <path fill="#FFF" stroke="#FFF" stroke-width="1.5" d="M28 1128l8-3-7-2c-3-1.5-8.5-4.5-11-6-2.5-2-8.5-4.5-12-5l-6-1v11l9-1c4.5-.5 11.5.5 14 2 3 1 5.5 3 5 4v1z"/>
    <path fill="#455A64" stroke="#455A64" stroke-width="1.5" d="M490 1128c-7.5-5-13-8.5-16-10s-9-4-12-5c-3-1.5-9-4-12-5-3-1.5-9.5-4-13-5-3-1.5-9.5-3.5-13-4l-14-4-14-4-12-4-12-6c-3-1.5-6.5-1.5-7 0 0 1.5 2.5 5 5 7s8 5.5 11 7c3 1 9 3.5 12 5 3 1 9.5 3 13 4s10 3.5 13 5c3 1 9.5 3 13 4s10 3.5 13 5l12 4c3.5 1 10 3.5 13 5s9.5 4 13 5c3.5.5 7 0 7-1v-3z"/>
    <path fill="#FFF" stroke="#FFF" stroke-width="1.5" d="M120 1131c-3-5-6-9-8-11-2-2.5-5-6-6-7l-2-3 1 3c1 1.5 3.5 6 5 9 1.5 2.5 4.5 6 6 7l4 2zm67-6l1-6-1 3v3zm-84-16l1 1-1-1-1-2v1l1 1z"/>
    <path fill="#455A64" stroke="#455A64" stroke-width="1.5" d="M384 1102c-7.5-5-12.5-9-15-11l-10-8c-2-2-6.5-6-9-8-2-2-6.5-6-9-8s-7-6-9-8c-2-2.5-6.5-7-9-9l-10-8-8-8c-2-2.5-6.5-7-9-9-2-2.5-5.5-4-7-3-1 1 0 4.5 2 7s5.5 7.5 7 10l8 10c2 2 6 6.5 8 9 2.5 2 7 6 9 8 2.5 2 7 6.5 9 9 2.5 2 7 6 9 8l10 8c2.5 1.5 7.5 5 10 7 3 1.5 8.5 4.5 11 6 3 1.5 7.5 2 9 1l3-3z"/>
    <path fill="#FFF" stroke="#FFF" stroke-width="1.5" d="M139 1101c5-7.5 9.5-11.5 12-13 3-2 6.5-7.5 7-11 1-3.5 2.5-10.5 3-14 1-3.5 2-11 2-15s-1.5-9.5-3-11c-1-1.5-5-3.5-8-4s-9-1-12-1h-5l5 4c2.5 1.5 6.5 6 8 9 2 2.5 4.5 8.5 5 12 1 3.5 1 10.5 0 14-.5 3-3 8.5-5 11l-6 10c-1 2.5-4.5 7-7 9l-5 4 4-2 5-2z"/>
    <path fill="#455A64" stroke="#455A64" stroke-width="1.5" d="M450 1082c-5.5-7.5-9-12.5-11-15-1.5-3-5.5-8-8-10-2-2-7-5-10-6-3-1.5-6-1.5-6 0s2.5 5 5 7c2.5 1.5 7 5.5 9 8 2.5 2 6.5 6.5 8 9l8 10c2 2 4 2.5 4 1l1-4z"/>
    <path fill="#FFF" stroke="#FFF" stroke-width="1.5" d="M136 1087c2-4.5 1-6.5-1-7-2-1-5.5-4-7-6l-3-4 3 6c1.5 2.5 4 6.5 5 8l3 3zm6-7l5-10-1 1c-.5 0-2 2.5-3 5l-1 4zm42-1l-3-8 1 4 2 4zm-184-5v1h2c1.5 0 5-.5 7-1 2-1 4-2.5 4-3 .5-1-1.5-1.5-4-1H0v4zm62-4l5-4-3 2-2 2zm75-3v-3 3z"/>
    <path fill="#455A64" stroke="#455A64" stroke-width="1.5" d="M690 1056c-7-1.5-13-2.5-17-3l-14-4c-3-1-7.5-2-9-2h-2l6 3c3.5 1 10 3.5 13 5 3 1 10 2 14 2l9-1zm-669-2c6-6.5 7-10 6-11s-4 .5-6 3c-2 2-8.5 3-13 2l-8-2v10l10-1 11-1z"/>
    <path fill="#FFF" stroke="#FFF" stroke-width="1.5" d="M93 1042c6.5-6 11-10.5 13-13s2.5-6 1-7c-1-1-4.5 0-7 2-2 2-6 7-8 10-1.5 2.5-2 6-1 7l2 1z"/>
    <path fill="#455A64" stroke="#455A64" stroke-width="1.5" d="M674 1039c6-6.5 8-10 8-11 .5-1.5 3-5 5-7 2.5-2 3.5-4.5 2-5-1.5-1-5.5 0-8 2s-9 4.5-13 5c-3.5.5-11 1-15 1s-10.5-1.5-13-3c-2.5-2-4-4.5-3-5 1-1-1-3-4-4-2.5-1.5-8-4.5-11-6-2.5-1.5-7.5-5-10-7-2-2.5-6-7-8-9-2-2.5-6.5-7-9-9-2-2-6-6.5-8-9-1.5-3-5-8-7-10l-8-10c-1.5-3-2-6-1-6 1-.5 5 0 8 1 3 .5 5.5 3 5 5s0 6.5 1 9l3 5v-1c.5-1 2.5-3.5 4-5 2-1.5 7.5-2 11-1 3.5.5 10.5 2 14 3s10 3 13 4c3.5 1 10 3.5 13 5s9.5 4 13 5c3.5.5 10 2 13 3l14 4c4 .5 11.5 2 15 3 3.5.5 11 1.5 15 2s11.5 1.5 15 2c4 .5 12 1 16 1 4.5 0 13 .5 17 1h17l16-2c4-.5 12-1 16-1 4-.5 11.5-1.5 15-2 3.5-1 10.5-2.5 14-3 4-1 11-3 14-4l14-4c3.5-1 9.5-3.5 12-5 3-1.5 9-4 12-5 3.5-1 9.5-3.5 12-5 3-2 8.5-5.5 11-7 2.5-2 5.5-5 6-6s-2.5-1-6 0c-3.5.5-10.5 2-14 3-3 1-10 3-14 4-3.5.5-10 2.5-13 4-3 1-10 3-14 4-3.5.5-10.5 2-14 3-3.5.5-10.5 2-14 3-3.5.5-11 2-15 3-3.5.5-11 1.5-15 2-4 0-12.5.5-17 1-4 0-12 .5-16 1-4 0-12-.5-16-1-3.5-.5-11.5-1-16-1l-16-2c-3.5-.5-11.5-1-16-1-4-.5-11.5-2-15-3-3-1-9.5-3-13-4-3-1-10-2.5-14-3-3.5-1-10-3-13-4-3-1.5-9.5-4-13-5l-12-6c-2.5-1.5-8-4-11-5l-12-6c-2.5-2-7.5-5.5-10-7-2.5-2-8-5.5-11-7l-10-8c-2-2-6.5-5.5-9-7-2.5-2-8-5.5-11-7-2.5-2-8-5.5-11-7-2.5-1.5-8-4.5-11-6s-5.5-.5-5 2c.5 2 3 6.5 5 9 2 2 4 7.5 4 11s1.5 7 3 7h7c1.5 0 5 1.5 7 3 2 1 4 5.5 4 9 .5 3.5 1.5 11 2 15 1 3.5 3 10 4 13l6 12c1.5 3 4.5 8.5 6 11 2 2.5 5.5 8 7 11 1.5 2.5 5 7.5 7 10s6 7 8 9l10 8c2.5 2 7.5 5.5 10 7l12 6c3 1 9 3.5 12 5l12 6c3 1 10.5 1.5 15 1l10-2z"/>
    <path fill="#FFF" stroke="#FFF" stroke-width="1.5" d="M119 1043c3-.5 6-3 8-5 2.5-2 5.5-5.5 6-7l2-4-5 3c-2.5 1-7 4.5-9 7-1.5 2.5-3 5.5-3 6h1z"/>
    <path fill="#455A64" stroke="#455A64" stroke-width="1.5" d="M354 1034c-7-6-11.5-10-14-12l-10-8c-2-2-6.5-6-9-8-2-2-6-6.5-8-9-1.5-3-5-8-7-10-2-2.5-7-6.5-10-8-2.5-2-7.5-5.5-10-7l-10-8c-2-2-6.5-6-9-8-2-2.5-5-4.5-6-4h-2l5 4c2.5 2 7 6.5 9 9l8 8 10 8c2.5 2 6.5 6.5 8 9 2 2.5 5 8.5 6 12l6 12c1.5 2.5 5.5 7 8 9 2.5 1.5 8 4.5 11 6 3.5 1 9.5 3.5 12 5 3 1.5 7.5 2.5 9 2l3-2zm-354 5c7.5-4.5 10.5-9.5 11-13 1-3.5 3.5-10 5-13s4.5-8.5 6-11c1.5-3 4-9 5-12 1.5-3 3.5-9.5 4-13 1-4 3-11 4-14 1.5-3 4.5-8.5 6-11 2-3 3.5-8 3-10v-4l-4 5c-2 2-6 7-8 10-1.5 2.5-5 7.5-7 10-1.5 2.5-5 7.5-7 10s-5.5 8-7 11c-1.5 2.5-3.5 8-4 11s-2.5 8.5-4 11l-3 4v29zm404-6c-7.5-5-13-8.5-16-10l-10-8c-2-2-6.5-6-9-8l-4-4 3 5c1.5 2.5 5 7.5 7 10 2 2 6.5 6 9 8 3 1.5 8.5 5 11 7 2.5 1.5 6 2.5 7 2l2-2zm-27-5c-5.5-7.5-9-12.5-11-15s-6-7-8-9c-2-2.5-6.5-7-9-9-2-2-6.5-6-9-8s-7.5-5.5-10-7l-10-8c-2.5-2-8.5-5-12-6-3-1-7-1-8 0-.5 1 1.5 4 4 6l10 8c2.5 1.5 7 5.5 9 8 2.5 2 7 6 9 8 2.5 2 7 6 9 8 2.5 2 7 6.5 9 9 2.5 2 7 6.5 9 9 2 2 7.5 4.5 11 5l7 1zm910 0c6-6.5 10-11.5 12-14s6-7 8-9c2.5-2 6.5-6.5 8-9 2-2.5 5.5-7.5 7-10 2-3 5.5-8.5 7-11 1.5-3 4.5-8.5 6-11 2-3 5-9 6-12 1.5-3 4-9 5-12 1.5-3 4-9 5-12 1.5-3.5 4-10 5-13 1-3.5 3-10 4-13 1.5-3.5 3.5-10.5 4-14 1-3.5 2-11 2-15l2-16c.5-4 1-12 1-16 0-4.5-.5-13-1-17s-2-11.5-3-15c-.5-3.5-2-10.5-3-14-.5-3.5-2-10.5-3-14-.5-4-2-11-3-14-1-3.5-3.5-10-5-13-1-3.5-3.5-9.5-5-12-1.5-3-4.5-8.5-6-11l-6-12c-1.5-3-5-8.5-7-11-1.5-2.5-5-7.5-7-10-1.5-3-5-8-7-10-2-2.5-6-7-8-9-2-2.5-5.5-8-7-11l-3-6v5c0 2 1.5 7 3 10s4.5 8.5 6 11c2 2.5 5.5 7.5 7 10 2 2.5 5.5 8 7 11 2 2.5 5.5 8 7 11 1.5 2.5 4.5 8 6 11s4 9 5 12l6 12c1.5 2.5 4 8.5 5 12l4 14c1 3 3 9.5 4 13s2 11 2 15l2 16c.5 3.5 1 11.5 1 16s-.5 13-1 17c0 4-.5 12-1 16s-2 11.5-3 15c-.5 3.5-2 10.5-3 14-1 3-3 9.5-4 13s-3.5 10-5 13c-1 3-3.5 9.5-5 13-1 3-3.5 9-5 12-1.5 2.5-4.5 8-6 11-1.5 2.5-5 7.5-7 10s-5.5 8-7 11c-1.5 2.5-5 7.5-7 10l-8 10c-2 2-6 6.5-8 9-1.5 2.5-5 7.5-7 10l-4 5 4-1 4-1z"/>
    <path fill="#FFF" stroke="#FFF" stroke-width="1.5" d="M177 1032l2-13-2 4c-.5 2-1 5.5-1 7l1 2zm1-25l-1-10v5l1 5zm-4-15c.5-5 .5-7 0-7l-1-1v6l1 2z"/>
    <path fill="#455A64" stroke="#455A64" stroke-width="1.5" d="M89 975c7.5-5 12.5-9 15-11s6.5-6.5 8-9c2-2.5 5.5-7.5 7-10l8-10c2-2.5 5.5-7.5 7-10 1.5-3 4.5-8.5 6-11s5-7 7-9l5-4-5 2c-2.5.5-7.5 3-10 5s-7 6.5-9 9l-9 9c-2 2-6 6.5-8 9-2 2-5 7-6 10-1 2.5-3 6.5-4 8-.5 1-3 4.5-5 7l-9 9c-2 2-2.5 4.5-1 5l3 1zm-50-34c6-6.5 9.5-12 11-15s4.5-8.5 6-11c2-2.5 5-8 6-11 1.5-3 3-8 3-10 .5-2.5.5-6 0-7-.5-1.5-3.5-.5-6 2-2 2-6 6.5-8 9-1.5 2.5-4.5 8-6 11-1.5 2.5-4.5 8-6 11s-5 8.5-7 11c-1.5 2.5-.5 6.5 2 8l5 2zm270-44c6.5-6 10-11.5 11-15s3-10 4-13c1-3.5 1-7.5 0-8-1-1-3.5 1-5 4l-5 10c-.5 2-2.5 7.5-4 11-1 3-5.5 7-9 8l-6 2 7 1h7z"/>
    <path fill="#455A64" stroke="#455A64" stroke-width="1.5" d="M308 887c-7.5-5-12.5-9-15-11s-8-5.5-11-7l-5-3 2 5c1 2 4 6.5 6 9 2.5 2 9.5 5 14 6l9 1zm690-18c4.5-8 9.5-12 13-13s11-2 15-2h17c4-.5 11-2 14-3 3.5-1.5 10.5-3.5 14-4l14-4c3.5-1 10.5-2.5 14-3 3.5-1 10.5-2.5 14-3 3.5-1 10-3 13-4 3.5-1.5 10-4 13-5 3.5-1 10-3 13-4 3.5-1.5 9.5-4.5 12-6 3-1.5 9-4 12-5 3.5-1 10-3.5 13-5s8.5-4.5 11-6c2.5-2 7.5-5.5 10-7 3-2 8-6 10-8 2.5-2 7-6 9-8 2.5-2 6.5-6.5 8-9 2-3 6-8 8-10 2-2.5 5.5-7.5 7-10 2-3 5.5-8.5 7-11 1.5-3 4.5-8.5 6-11 1.5-3 4-9 5-12 1.5-3.5 4-10 5-13 1.5-3 4-9 5-12 1.5-3.5 3.5-10.5 4-14 1-3.5 2-10.5 2-14 .5-3.5.5-11 0-15s-2.5-10.5-4-13c-1-2.5-3-8-4-11-.5-3.5-3-9.5-5-12-1.5-2.5-5-7-7-9-2-2.5-6.5-7-9-9s-8-5.5-11-7c-2.5-1.5-8.5-4-12-5s-10.5-2.5-14-3c-3.5-1-10.5-2.5-14-3l-7-2h5c2.5 0 9 .5 13 1 4 0 11.5 1 15 2 4 .5 11.5 2 15 3 3.5.5 10 2.5 13 4 3 1 7.5 1.5 9 1 2-1 1.5-3.5-1-5-2.5-2-8.5-5-12-6-3-1.5-9.5-3.5-13-4l-14-4c-3-1-10-2.5-14-3-3.5-1-10.5-2.5-14-3-3.5-1-11-2.5-15-3l-16-2c-3.5-.5-11.5-1-16-1h-32l-16-2-14-4c-3-1-6-3-6-4 0-1.5-2.5-5-5-7s-7-6-9-8c-2-2.5-5.5-8-7-11-1-3.5-2.5-10-3-13-.5-3.5-.5-10.5 0-14l4-14c1-3.5 3-10 4-13 1-3.5 1.5-8 1-9s-2.5 1-4 4c-1.5 2.5-4.5 8-6 11-1.5 2.5-5 7.5-7 10l-8 10c-2 2-6 6.5-8 9s-5.5 8-7 11c-1 3-3 9.5-4 13-1 3-3 10-4 14-.5 3.5-2 10.5-3 14-1 3-.5 6.5 1 7s5-1 7-3c2.5-2 6.5-6.5 8-9 2-2.5 5-8 6-11 1.5-3.5 5-9 7-11 2.5-2 6-4 7-4 1.5-.5 3 2.5 3 6 0 3 1.5 9 3 12 1.5 2.5 2 6.5 1 8s-5.5 2-9 1c-3-1-8 0-10 2s-5.5 7-7 10c-1.5 2.5-4 8.5-5 12-1 3-3.5 9-5 12l-6 12c-1.5 2.5-4.5 8-6 11s-4 9.5-5 13c-1 3-3 9.5-4 13-1 3-.5 6.5 1 7 2 0 5.5-2.5 7-5l8-10c2-2.5 5.5-7.5 7-10 2-2.5 5.5-7.5 7-10 2-2.5 6-7 8-9 2.5-2.5 7.5-6.5 10-8 3-1.5 9-4 12-5 3.5-1.5 10.5-3.5 14-4 4-.5 11.5-1.5 15-2 4-.5 12-.5 16 0s11.5 2 15 3c3.5.5 10.5 2 14 3 4 .5 11.5 1.5 15 2 4 .5 11.5 1.5 15 2 4 .5 11.5 2 15 3s10 3 13 4l14 4c4 .5 10.5 2.5 13 4 3 1.5 8.5 5 11 7 2.5 1.5 6.5 6 8 9s3.5 9.5 4 13c1 3.5 1.5 11.5 1 16 0 4-.5 12-1 16-.5 3.5-2 10.5-3 14-1 3-3 10-4 14-.5 3.5-2.5 10-4 13-1 3-3.5 9-5 12l-6 12c-1.5 2.5-4.5 8-6 11-1 3-1 7.5 0 9s4 1 6-1c2.5-2 6.5-6.5 8-9 2-3 5.5-8.5 7-11 1.5-3 4-9 5-12 1.5-3 4-9.5 5-13s2.5-10.5 3-14c1-3.5 3-8 4-9 1.5-1 2.5 2.5 2 7 0 4-.5 12-1 16-.5 3.5-2.5 10.5-4 14-1 3-3.5 9-5 12-1.5 2.5-5 7.5-7 10-1.5 2.5-5 8-7 11-1.5 2.5-5 7.5-7 10-2 2-6 6.5-8 9s-6.5 7-9 9c-2 2-6.5 6-9 8-2.5 1.5-8 5-11 7-2.5 1.5-8 4.5-11 6-3 1-9 3.5-12 5s-9.5 4-13 5c-3 1-9 3.5-12 5-3 1-9.5 3-13 4s-10 3.5-13 5c-3 1-9.5 3-13 4l-14 4c-3.5.5-10.5 2-14 3-3.5.5-10.5 2-14 3l-14 4c-3.5.5-11.5 1.5-16 2-4 0-11-1.5-14-3-2.5-1.5-7.5-3-10-3-2 0-5.5 3.5-7 7-1 3-3.5 9-5 12-1 3-3 10-4 14l-1 7 3-3 3-3zm-968 6c6-5 10-9 12-11 2-2.5 6-6 8-7l5-3-6 2c-3 .5-8 3.5-10 6-2 2-5.5 6.5-7 9l-2 4zm285-15c5-7.5 9-12 11-14 2.5-2.5 6.5-7.5 8-10 1.5-3 3-10 3-14 .5-4 .5-12 0-16 0-4.5-.5-12.5-1-16-.5-4 0-11 1-14 1.5-3.5.5-6.5-2-6-2 .5-5 4.5-6 8-.5 3.5-2 11-3 15-.5 3.5-1 11.5-1 16 0 4-1 12-2 16-.5 3.5-2.5 10-4 13-1.5 2.5-4.5 8-6 11-1.5 2.5-2 6.5-1 8l3 3zM2 851h9-9z"/>
    <path fill="#455A64" stroke="#455A64" stroke-width="1.5" d="M1033 828c5-7.5 10-9.5 13-9l6 1-4-4c-1.5-2-6.5-3.5-10-3-3 .5-8 4-10 7-1.5 2.5-1 6 1 7l4 1zm-722-3c0-8-.5-14.5-1-18l-1-8v18l1 8h1zM9 816c3-.5 4-2 4-3s-1.5-2-3-2H0v4l4 1h5zm488-10c1.5-11 2.5-18.5 3-22 1-4 2-12 2-16 .5-4 0-11.5-1-15-.5-3.5-2-10.5-3-14s-2.5-10.5-3-14l-2-16c0-4.5-.5-12.5-1-16-.5-4-1.5-11.5-2-15-.5-4-2-11.5-3-15s-3.5-10-5-13c-1-3-3.5-9-5-12-1-3.5-3.5-10-5-13-1-3-3.5-9-5-12-1-3-3.5-7.5-5-9s-3 1-3 5l2 16c1 3.5 2.5 10.5 3 14l4 14c1 3 2.5 10 3 14s1 12 1 16l2 16c1 3.5 2.5 11 3 15l2 14c1 3.5 2 11.5 2 16 .5 4 2 11.5 3 15 1 3 2 10.5 2 15 .5 4 1.5 11.5 2 15 .5 3 1 10 1 14 0 3.5 2 6 4 5l4-2zm587-1c9.5-3 16.5-5 20-6s10-3 13-4c3.5-1 10-3 13-4 3-1.5 9-4 12-5 3.5-1.5 10-4 13-5l12-6c3-1.5 8.5-4.5 11-6 2.5-2 7-6 9-8l10-8c2.5-2 7-6 9-8 2-2.5 5.5-7.5 7-10l4-6-3 1c-1 .5-4.5 3-7 5-2 2-6.5 6-9 8l-10 8c-2.5 1.5-8 4.5-11 6l-12 6c-2.5 1.5-8 4.5-11 6-2.5 1.5-8.5 4.5-12 6-3 1-9 3.5-12 5-3 1-10 3-14 4-3.5.5-10.5 2-14 3-3 1-10 2.5-14 3-3.5.5-11.5 1.5-16 2h-17c-4 0-11.5-1-15-2-3-1.5-8.5-5-11-7-2-2-4.5-.5-5 3v14c0 3.5 3 6.5 6 6 3.5-.5 11-.5 15 0 4.5 0 13 .5 17 1 4 0 11.5-.5 15-1l7-1zm-852-25c3-9.5 5.5-16 7-19s4.5-8.5 6-11c2-2.5 5.5-7.5 7-10 2-2.5 5.5-7.5 7-10 2-3 5.5-8.5 7-11l6-12c1.5-3 5-8 7-10 2-2.5 5.5-7.5 7-10 1.5-3 2-6.5 1-7s-4 1.5-6 4c-2 2-6 6.5-8 9s-5.5 8-7 11c-1.5 2.5-5 7.5-7 10-1.5 2.5-5 8-7 11-1.5 2.5-5 7.5-7 10-1.5 2.5-4.5 8-6 11l-6 12c-1.5 2.5-4 8.5-5 12-.5 3.5 0 8 1 9l3 1z"/>
    <path fill="#455A64" stroke="#455A64" stroke-width="1.5" d="M1059 786c-8.5-4.5-11-10.5-11-15v-17c0-4.5-1.5-9.5-3-10-1-.5-2.5 3.5-3 8 0 4-1 11.5-2 15-.5 3.5 0 10.5 1 14 1.5 3 6.5 6 10 6l8-1zM30 768c6-5 9-8.5 10-10l2-4-5 5c-2 2-5 5.5-6 7l-1 2z"/>
    <path fill="#FFF" stroke="#FFF" stroke-width="1.5" d="M489 724c-1-9-2-13.5-3-15l-1-3 1 8c1 3.5 2 8 2 9l1 1z"/>
    <path fill="#455A64" stroke="#455A64" stroke-width="1.5" d="M0 636v1h4c2.5 0 6-.5 7-1 1.5-.5 2-1.5 1-2-.5-.5-2.5-1-4-1H2l-2-1v4zm1307-13c1.5-11 2-19 2-23 .5-4.5 0-12.5-1-16-.5-3.5-2-10.5-3-14-.5-3.5-2.5-10-4-13s-5-8.5-7-11c-1.5-2.5-5.5-7-8-9s-8-5.5-11-7c-2.5-1.5-8-4-11-5-3-1.5-9.5-4-13-5s-10.5-2.5-14-3c-3.5-1-11-2.5-15-3-3.5-1-10.5-2.5-14-3-3.5-1-10.5-2.5-14-3-3.5-1-11.5-2-16-2-4-.5-11.5-1.5-15-2-3.5-1-11-2.5-15-3-3.5-1-11-2.5-15-3-3.5-.5-11-1.5-15-2-3.5-.5-10.5-2-14-3-3-1.5-8-5-10-7-2-2.5-4-9-4-13 .5-4.5 1.5-12.5 2-16 1-3.5 2.5-10.5 3-14 .5-4 1-12 1-16 .5-4.5 1-13 1-17 0-4.5-1-12.5-2-16-.5-4-2-11.5-3-15-.5-3.5-2.5-10-4-13-1-3-4-8.5-6-11-1.5-3-5-8.5-7-11-1.5-2.5-5-7.5-7-10s-6-7-8-9c-2-2.5-6.5-6.5-9-8l-10-8c-2.5-2-7.5-5.5-10-7-2.5-2-8-5.5-11-7-2.5-2-8-5.5-11-7-2.5-1.5-8-4-11-5l-12-6c-3-1.5-9-4-12-5-3-1.5-9.5-4-13-5s-10-3-13-4c-3-1.5-9.5-3.5-13-4-3.5-1-11-2.5-15-3-3.5-1-10.5-2.5-14-3-3.5-1-11-2.5-15-3-3.5-1-10.5-2.5-14-3-3.5-1-11-2.5-15-3-3.5-.5-11-1.5-15-2s-12.5-1-17-1c-4 0-12-.5-16-1s-12.5-1-17-1h-69c-4.5 0-13 .5-17 1-3.5.5-11 1.5-15 2-4 0-12 1-16 2-3.5.5-10.5 2-14 3-3.5.5-11 2-15 3-3.5.5-10.5 2-14 3-3.5.5-10.5 2-14 3-3.5.5-10.5 2-14 3l-14 4c-3 1-9.5 3-13 4s-10 3.5-13 5c-3 1-9.5 3-13 4-3 1-9 3.5-12 5l-12 6c-2.5 1.5-8 4.5-11 6l-12 6c-2.5 1.5-8 4.5-11 6-2.5 1.5-7.5 5-10 7l-10 8c-2.5 1.5-7.5 5.5-10 8-2 2-6 6.5-8 9-1.5 2.5-5 7.5-7 10-2 2-6 7-8 10-1.5 2.5-4.5 8-6 11-1.5 2.5-4.5 8-6 11s-4 9.5-5 13c-.5 3.5-2 10.5-3 14-.5 3.5-1 11.5-1 16s.5 12.5 1 16l4 14c1 3.5 3 10 4 13l6 12c1.5 2.5 4.5 8 6 11 2 2.5 5.5 7.5 7 10l8 10c2 2.5 6 7 8 9 2.5 2 6 6.5 7 9 1 2 4 6.5 6 9l8 10c2 2 7 5.5 10 7s8.5 5 11 7c2.5 1.5 8 4.5 11 6 3 1 8.5 4 11 6 3 1.5 8.5 4.5 11 6 3 1.5 9 4 12 5l12 4c3.5 1 7.5 4.5 8 7 1 2.5 5 4.5 8 4s9.5-1 13-1c3.5-.5 10.5 0 14 1 4 .5 11 2 14 3 3.5 1 10.5 2 14 2 4 0 8 2.5 8 5 .5 2 4 4.5 7 5 3 0 9-1.5 12-3s9.5-2.5 13-2c4 .5 11 2.5 14 4 3 1 10 2 14 2s11-.5 14-1c3.5-.5 10-2.5 13-4l6-3h-4c-2-.5-8-1.5-12-2-3.5-.5-10.5-2-14-3s-10.5-2.5-14-3c-3.5-1-11-2.5-15-3-3.5-1-10.5-2.5-14-3-3.5-1-10.5-2.5-14-3l-14-4c-3.5-1-10.5-2.5-14-3l-14-4c-3.5-1-10.5-2.5-14-3-3.5-1-6.5-2.5-6-3 .5-1 4.5-1 8 0 4 .5 11.5 2 15 3 3.5.5 10.5 2 14 3 3.5.5 10.5 2 14 3 4 .5 11.5 2 15 3 3.5.5 10.5 2 14 3 4 .5 11.5 2 15 3l14 2 16 2c4 .5 11.5 1.5 15 2 4 .5 12 1 16 1 4.5-.5 13-1 17-1 4.5 0 12.5-.5 16-1 4-.5 12-1 16-1 4.5-.5 12-2 15-3 3.5-1 11-2.5 15-3s11.5-1.5 15-2c4-.5 12-1 16-1 4-.5 11.5-1.5 15-2 4-1 11.5-2.5 15-3 3.5-1 10.5-2.5 14-3 4-1 11-3 14-4 3.5-1 10.5-2.5 14-3 3.5-1 10.5-2.5 14-3 4-1 11.5-2.5 15-3 3.5-1 10-3 13-4 3.5-1.5 10-4 13-5 3-1.5 7.5-5.5 9-8 2-2.5 4-6.5 4-8s2.5-4.5 5-6l10-8c2.5-2 7-6 9-8 2-2.5 5.5-7.5 7-10l4-5-4 1c-2 .5-6.5 3-9 5-2.5 1.5-8 5-11 7-2.5 1.5-8 4.5-11 6-2.5 1.5-8.5 4-12 5-3 1-9 3.5-12 5l-12 6c-3 1-9.5 3-13 4l-14 4c-3 1-9.5 3-13 4-3 1-9.5 3-13 4l-14 4c-3.5.5-11 2-15 3-3.5.5-10.5 2-14 3-3.5.5-11 1.5-15 2-3.5.5-11 2-15 3-3.5.5-11 1.5-15 2-4 0-12 .5-16 1l-16 2h-86c-4-.5-11.5-1.5-15-2-3.5-1-11-2.5-15-3s-11.5-1.5-15-2c-3.5-1-11-2.5-15-3l-16-2c-3.5-.5-10.5-2-14-3-3-1-9.5-3-13-4l-14-4c-3-1-9.5-3-13-4-3-1.5-9-4-12-5-3-1.5-9-4-12-5l-12-6-12-6c-2.5-1.5-8-4.5-11-6-2.5-2-7.5-5.5-10-7-2.5-2-7.5-5.5-10-7l-10-8-10-8c-2-2-6.5-6-9-8-2-2.5-6-7-8-9-2-2.5-5.5-8-7-11-1-3-3-9.5-4-13s-2.5-10.5-3-14c-.5-4-1-12-1-16 .5-4.5 2-12 3-15 1-3.5 3-10 4-13 1-3.5 3.5-10 5-13s4.5-8.5 6-11l8-10c2-2.5 6-7 8-9 2-2.5 6-7 8-9 2.5-2 7.5-5.5 10-7 3-2 8-6 10-8 2.5-2 8-5.5 11-7s8.5-4.5 11-6c3-1.5 8.5-4.5 11-6l12-6c3-1.5 9-4 12-5 3.5-1 10-3.5 13-5s9-4 12-5c3-1.5 9.5-3.5 13-4l14-4c3.5-1 10.5-2.5 14-3 3.5-1 10.5-2.5 14-3 4-1 11.5-2.5 15-3 3.5-1 10.5-2.5 14-3 4-.5 11.5-1.5 15-2 4-1 12-2 16-2l16-2c4-.5 12-1 16-1 4-.5 11.5-1.5 15-2 4-.5 12-.5 16 0h16c4 0 12 .5 16 1 4.5 0 13 .5 17 1h16c4.5 0 12.5 1 16 2 4 .5 11.5 1.5 15 2 4 .5 11.5 2 15 3 4 .5 11.5 2 15 3 3.5.5 10.5 2 14 3 3.5.5 10.5 2 14 3 4 .5 11 2 14 3 3.5 1 10 3.5 13 5 3.5 1 10 3 13 4 3.5 1 10 3.5 13 5 3 1 9 3.5 12 5 3.5 1 9.5 3.5 12 5 3 1.5 8.5 5 11 7 3 1.5 8.5 4.5 11 6 3 1.5 8.5 5 11 7 2.5 1.5 7.5 5 10 7s7 6.5 9 9c2 2 6 6.5 8 9 2 2 6 6.5 8 9 2.5 2 6.5 7 8 10 1.5 2.5 4.5 8 6 11s3.5 9.5 4 13c1 3.5 2.5 10.5 3 14 1 3.5 1.5 11 1 15l-2 16c0 4-1 12-2 16-.5 3.5-2 10.5-3 14l-2 14c-.5 3-1.5 9.5-2 13 0 3 2 8.5 4 11 2 2 7 5.5 10 7s10 3.5 14 4c4 0 11.5.5 15 1 4 .5 11.5 2 15 3 4 .5 11.5 1.5 15 2l16 2c4 .5 11.5 2 15 3l14 2c4 .5 11.5 2 15 3 4 .5 11.5 2 15 3 3.5.5 10.5 2 14 3 4 .5 11 2 14 3 3.5 1 10 3.5 13 5 3 1 8.5 4 11 6s7 6.5 9 9c2 2 5.5 7 7 10s3.5 9.5 4 13c1 3.5 2.5 10.5 3 14 .5 3 1 10.5 1 15s.5 13 1 17l1 7 4-3 5-4z"/>
    <path fill="#455A64" stroke="#455A64" stroke-width="1.5" d="M734 620c8-4.5 14-7.5 17-9s9-4 12-5c3.5-1 10.5-2.5 14-3 3.5-1 7.5-1.5 8-1h2l-6 3c-3 1-9.5 3.5-13 5-3 1-7 4-8 6-.5 2 2 3.5 5 3 3.5-.5 10-2 13-3 3.5-1.5 9.5-4.5 12-6 3-1.5 9-4 12-5 3.5-1.5 6.5-1.5 6 0-.5 1-1.5 4-2 6 0 2 3 2.5 6 1s9-4 12-5c3.5-1 11.5-2 16-2h16c4 0 11 .5 14 1l14 2c3.5.5 6.5-1 6-3-.5-2.5-5-5.5-9-6-3.5-1-11-2.5-15-3-3.5-.5-11.5-1-16-1h-14l-5-1h1l2-1-14 1c-7 0-17.5 1-21 2l-14 2c-3 .5-10.5 1.5-15 2-4 0-11.5 1-15 2-3 1-9.5 3.5-13 5-3 1-9 3.5-12 5-2.5 1.5-6 5-7 7-1 1.5 1 2.5 4 2l7-1zM0 602c7.5-4.5 11.5-8.5 13-11l8-10c2-2.5 3.5-6 3-7-.5-1.5 1-5 3-7 2.5-2 7-6 9-8l9-9 8-10c2-2.5 5.5-7.5 7-10 2-2.5 5.5-7.5 7-10 1.5-3 4-8.5 5-11s3-6.5 4-8c1-2 4-6.5 6-9s5.5-7.5 7-10c1.5-3 4.5-8.5 6-11 2-2.5 5.5-8 7-11s5-8 7-10l5-4h-3c-1.5 0-6 1.5-9 3-2.5 1.5-7 5.5-9 8-1.5 2.5-4.5 8.5-6 12-1 3-3.5 9-5 12-1.5 2.5-5 8-7 11-1.5 2.5-5 7.5-7 10-1.5 2.5-5 7.5-7 10-1.5 2.5-5 7.5-7 10s-4.5 6.5-5 8c-.5 1-2.5 4-4 6s-5 6.5-7 9c-1.5 2.5-5.5 7-8 9-2.5 1.5-7.5 5-10 7s-9 6-13 8l-7 3v30zm855-9c-1-1.5-5-2-9-2-3.5 0-8.5.5-10 1l-2 1h21zm-84-37c12-.5 20-1 24-1 4.5-.5 12.5-1.5 16-2 4-.5 11.5-1.5 15-2l16-2c4-.5 11.5-1.5 15-2 4-.5 11.5-1.5 15-2 4-1 11-3 14-4 3.5-1 10-3 13-4l14-4c3.5-1 10-3 13-4 3.5-1 10-3 13-4 3.5-1.5 10-4 13-5 3-1.5 9-4 12-5l12-6c3-1.5 8.5-4.5 11-6 3-1.5 8.5-4.5 11-6 3-2 8-6 10-8 2.5-2 7-6 9-8 2.5-2 7-6.5 9-9s5.5-7.5 7-10l8-10c2-2.5 5-8 6-11 1.5-3 3.5-9.5 4-13l2-16 1-8 2 6c1 2.5 1.5 9 1 13s-2 11.5-3 15c-1 3-3.5 9-5 12-1 3-4 8.5-6 11l-8 10c-1.5 2.5-1.5 5 0 5 2-.5 6-3 8-5 2.5-2 7-6 9-8 2-2.5 5.5-7.5 7-10 2-3 5-9 6-12 1-3.5 2.5-10.5 3-14 1-4 2.5-11.5 3-15 .5-4 0-11.5-1-15-.5-3.5-2.5-10-4-13s-4.5-8.5-6-11c-1.5-3-5.5-8-8-10-2-2.5-6-7-8-9-2-2.5-6.5-6.5-9-8-2.5-2-8-5.5-11-7-2.5-2-8-5.5-11-7-2.5-1.5-8-4.5-11-6-2.5-2-8-5.5-11-7-2.5-1.5-8-4.5-11-6-2.5-1.5-8-4.5-11-6s-9-4-12-5c-3-1.5-9.5-4-13-5-3-1.5-9.5-4-13-5-3-1-8-3-10-4-2-1.5-5.5-4.5-7-6s-6.5-4-10-5c-3-1-9.5-3-13-4s-10.5-2.5-14-3c-3.5-1-11-2.5-15-3-3.5-.5-11-1.5-15-2-3.5-1-11-2-15-2l-16-2c-4-.5-12.5-1-17-1h-16c-4-.5-12.5-.5-17 0h-17c-4 0-12 .5-16 1l-16 2c-4 0-12 .5-16 1-3.5.5-11 2-15 3-3.5.5-11 1.5-15 2-3.5.5-11 1.5-15 2s-11.5 2-15 3c-3.5.5-10.5 2-14 3-3 1-9.5 3-13 4l-14 4c-3.5.5-10.5 2.5-14 4-3 1-9 3.5-12 5-3 1-9 3.5-12 5-3 1-9 3.5-12 5s-8.5 5-11 7c-2.5 1.5-8 4.5-11 6s-8.5 5-11 7c-2.5 1.5-7.5 5-10 7l-9 9c-2 2-6.5 6-9 8l-9 9c-2 2-6 6.5-8 9-1.5 2.5-4.5 8-6 11-1.5 2.5-4.5 8.5-6 12-1 3-3 9.5-4 13-.5 3.5-.5 11 0 15s1.5 11.5 2 15c1 3.5 3 10 4 13l6 12c2 2.5 5.5 7.5 7 10 2 2.5 6.5 7 9 9s7 6.5 9 9l8 8 10 8c3 1.5 8.5 5 11 7 2.5 1.5 8 4.5 11 6s8.5 4.5 11 6c3 1.5 9 4 12 5 3.5 1 10 3.5 13 5 3.5 1 10 3 13 4l14 4 14 4c3.5.5 10.5 2 14 3 3.5.5 10.5 2 14 3l16 2c4 0 12 .5 16 1s11.5 1.5 15 2c4 .5 11.5 1.5 15 2 4 .5 12.5 1 17 1h54z"/>
    <path fill="#FFF" stroke="#FFF" stroke-width="1.5" d="M602 519c-7-6-12-9.5-15-11s-8.5-5-11-7c-2-2-6.5-5.5-9-7l-10-8c-2-2.5-5-8.5-6-12-.5-3.5 0-10.5 1-14s3.5-9.5 5-12c1.5-3 4.5-8.5 6-11 1.5-3 5-8 7-10l9-9 10-8c2.5-2 7-6 9-8 2.5-2 7.5-5.5 10-7 2.5-2 8-5 11-6 3.5-1.5 9.5-4.5 12-6 2.5-2 8-5.5 11-7s9-4 12-5c3-1.5 9-4 12-5 3.5-1 10.5-2.5 14-3 4-1 11.5-2.5 15-3 4-.5 11.5-2 15-3s10-3 13-4c3.5-1 10.5-2.5 14-3 4-.5 12-1 16-1 4.5-.5 13-1 17-1 4-.5 12-.5 16 0l16 2h16c4.5 0 12.5 1 16 2 4 .5 11.5 2 15 3 3.5.5 10.5 2 14 3 4 .5 11.5 2 15 3 3.5.5 10.5 2 14 3 3.5.5 10 2.5 13 4s8.5 5 11 7c2.5 1.5 4 4 3 5s-5 .5-8-1c-2.5-1.5-8.5-3.5-12-4l-14-4c-3.5-1-9-2-11-2l-3-1 10 3c5.5 1.5 14 4.5 17 6l12 4c3.5 1 9.5 4 12 6 3 1.5 8 5 10 7l10 8c2.5 2 7 6.5 9 9 2 2 5.5 7 7 10 1.5 2.5 4.5 8 6 11 2 2.5 5.5 8 7 11 1.5 2.5 4.5 8 6 11s4 9 5 12c1.5 3 5.5 7 8 8 2.5.5 6.5.5 8 0s5-3 7-5c2.5-2 6.5-6.5 8-9 2-3 3.5-8 3-10 0-2-2.5-5-5-6-2-1-6.5-4-9-6s-7.5-5.5-10-7l-10-8c-2.5-2-7-6.5-9-9-1.5-2.5-5-7-7-9-2-2.5-6.5-7-9-9l-10-8c-2-2-3.5-5-3-6 1-1.5-1-4-4-5-3-1.5-9-4-12-5l-12-6c-2.5-2-8.5-5-12-6-3-1-9.5-3-13-4s-11-2.5-15-3c-3.5-.5-10-2-13-3-3-1.5-10-3.5-14-4-3.5-1-10.5-2.5-14-3-3.5-1-11.5-2-16-2l-16-2c-3.5-.5-11-1-15-1-4-.5-12.5-1-17-1h-18c-4 0-12.5.5-17 1-4 0-12 .5-16 1-3.5.5-11 1.5-15 2-4 0-12 .5-16 1s-12.5 1-17 1c-4 0-12.5.5-17 1-4 0-12 .5-16 1-3.5.5-10.5.5-14 0-3.5-1-11-2.5-15-3s-9.5 0-11 1c-1 1 2 2.5 6 3s11.5 1.5 15 2c4 .5 7.5 2 7 3 0 1-4 3-8 4-3.5.5-10 2.5-13 4-2.5 1.5-9 4-13 5-3.5.5-11 1.5-15 2-3.5.5-11 1.5-15 2-4 0-11 2-14 4-2.5 1.5-8 4.5-11 6-2.5 1.5-8 5-11 7-2.5 1.5-7.5 5-10 7-2 2-6 6.5-8 9-1.5 2.5-5 7.5-7 10l-8 10-9 9-4 4 1-7c1-3.5 3.5-9.5 5-12l6-12c1.5-3 4.5-8.5 6-11 2-2.5 6.5-7 9-9s7.5-5.5 10-7c2.5-2 7-6 9-8 2.5-2 8-5.5 11-7s8.5-4.5 11-6l12-6c3-1.5 8-5 10-7 2-2.5 5.5-7.5 7-10 2-2.5 6.5-7 9-9s7.5-5.5 10-7c2.5-2 8-4 11-4h13c3.5-.5 9.5-2.5 12-4 3-1.5 8.5-5 11-7s1.5-4.5-2-5c-3-.5-10.5-.5-15 0-4 0-11.5 1-15 2-3 1-9 3.5-12 5-3 1-8.5 4-11 6s-7 6.5-9 9c-1.5 2.5-5.5 7-8 9-2.5 1.5-8 5-11 7-2.5 1.5-8 4.5-11 6-2.5 1.5-8 5-11 7-2.5 1.5-8 4.5-11 6-2.5 1.5-7.5 5-10 7-2 2-6.5 6-9 8l-10 8c-2 2-6 6.5-8 9l-4 5v-6c.5-3 3-8 5-10 2-2.5 6-7 8-9l9-9c2-2.5 5.5-7.5 7-10 2-3 4-8 4-10l1-4-5 4c-2 2-6 6.5-8 9s-6.5 7-9 9c-2.5 1.5-7.5 5.5-10 8-2 2-6 6.5-8 9-1.5 2.5-4.5 8-6 11-1 3-3 10-4 14-.5 3.5-1 11.5-1 16 0 4 1.5 11 3 14 2 2.5 5 8 6 11 1.5 3 4.5 8.5 6 11 2 2.5 6.5 5.5 9 6 3 0 6.5-3.5 7-7 1-3.5 3-10 4-13 1.5-3.5 5-9 7-11 2.5-2 6.5-6.5 8-9 1.5-3 4.5-8.5 6-11 2-3 6.5-7.5 9-9 2.5-2 8-5.5 11-7s9-4 12-5c3-1.5 9-4 12-5 3-1.5 9.5-4 13-5s10-3 13-4c3.5-1 10-3 13-4 3.5-1.5 10-4 13-5 3.5-1 10.5-2.5 14-3 4-.5 11.5-1.5 15-2 4-1 12-2 16-2h40l-7 2c-3 1-10 3-14 4-3.5.5-11 1.5-15 2-3.5.5-11 2-15 3-3.5.5-10.5 2-14 3-3.5.5-10 2.5-13 4-3 1-9.5 3-13 4l-14 4c-3 1-9.5 3.5-13 5-3 1-9 3.5-12 5-3 1-9 3.5-12 5-3 1-9 3.5-12 5s-8.5 5-11 7c-2 2-5.5 7-7 10l-6 12c-1.5 2.5-5 7.5-7 10-2 2-5 7.5-6 11s-3.5 10-5 13c-1 3 0 8.5 2 11l10 8c2.5 1.5 7.5 5 10 7 2.5 1.5 7.5 5 10 7s3 4.5 1 5c-1.5.5-.5 2.5 2 4l10 6c3 1.5 8.5 4.5 11 6 3 1.5 9.5 4 13 5 4 .5 11.5.5 15 0l7-1z"/>
    <path fill="#455A64" stroke="#455A64" stroke-width="1.5" d="M1440 478v-63l-7-3c-3-2-8-6.5-10-9-1.5-3-4.5-8.5-6-11l-6-12-6-12c-1-3-3.5-8.5-5-11-1.5-3-5-8.5-7-11l-6-12c-1-3-3.5-9-5-12s-3.5-7.5-4-9c0-1.5 1.5-3 3-3 2 0 2.5-3 1-6s-4-9-5-12c-1-3.5-3.5-10-5-13-1-3.5-3-10-4-13-1-3.5-3.5-10-5-13-1-3-3.5-9-5-12-1-3.5-3.5-10-5-13-1-3-4.5-8-7-10-2-2.5-6.5-7-9-9-2-2-5.5-6.5-7-9l-6-12c-1-3.5-3.5-9.5-5-12-1.5-3-5.5-8-8-10-2-2.5-6-7-8-9l-8-10c-1.5-2.5-5-7.5-7-10-1.5-3-4.5-8.5-6-11-1.5-3-5-8.5-7-11s-4.5-3.5-5-2c0 1.5-1 2.5-2 2-1-1-4-4.5-6-7-1.5-3-4.5-8.5-6-11l-6-12c-1-3.5-3.5-10-5-13-1-3-3.5-8.5-5-11l-6-12c-1-3.5-3.5-9.5-5-12l-6-12c-1.5-3-3.5-10.5-4-15l-1-10h-20l4 10c2 5 5 13.5 6 17l6 12c1.5 2.5 4.5 8 6 11 1.5 2.5 4 8.5 5 12l6 12c1.5 2.5 4.5 8 6 11l6 12c1.5 2.5 4.5 8 6 11 1.5 2.5 4.5 8 6 11l6 12c1.5 2.5 4.5 8 6 11l6 12c1.5 2.5 4.5 8 6 11 1.5 2.5 4.5 8 6 11l6 12c1.5 2.5 4.5 8 6 11l6 12c1.5 2.5 4.5 8 6 11 1.5 2.5 4.5 8 6 11s4 9 5 12l6 12c1.5 3 4 9 5 12l6 12c1.5 2.5 4.5 8 6 11l6 12c1.5 2.5 4.5 8 6 11l6 12c1.5 2.5 4 8 5 11l6 12 6 12c1.5 2.5 4.5 8 6 11l6 12c1.5 2.5 4.5 8 6 11 1.5 2.5 4.5 8 6 11s4 9 5 12l6 12c1.5 3 4 9 5 12l6 12c1.5 2.5 6 9.5 9 14l7 9z"/>
    <path fill="#FFF" stroke="#FFF" stroke-width="1.5" d="M754 467l2-11-1 6-1 5zm22-10c9-3.5 15-6 18-7 3.5-1.5 7.5-5 8-7 .5-2.5-3-5-7-5-3.5 0-10 2-13 4-2.5 1.5-6.5 6-8 9-1 3-1 6 0 6h2zm63-10c10.5-.5 17.5 0 21 1 4 .5 8 .5 8 0 0-1-3.5-2.5-7-3-3.5-1-10.5-2.5-14-3-3-1-9-.5-12 1-2.5 1.5-3 3.5-1 4h5zm180-14c-2.5-10.5-4.5-17-6-20s-5-8-7-10c-2-2.5-7-6.5-10-8-2.5-1.5-8-4.5-11-6s-10-3-14-3l-8-1 7 2c3.5 1 9.5 3.5 12 5 3 1.5 8.5 5 11 7 2.5 1.5 7 5.5 9 8 2.5 2 5.5 6.5 6 9 1 2.5 3.5 8 5 11s3.5 6 4 6h2z"/>
    <path fill="#FFF" stroke="#FFF" stroke-width="1.5" d="M1045 429c.5-12 1.5-19.5 2-23 1-4 2.5-8 3-8 1 0 .5-3-1-6-1-3-4-8.5-6-11-1.5-3-5-8-7-10-2-2.5-6-3.5-8-2s-6.5 2-9 1c-2.5-1.5-7.5-5-10-7-2-2-7-5.5-10-7l-10-8c-2-2-7-5.5-10-7l-12-6-10-6c-2.5-2-8-5.5-11-7s-9-4-12-5l-12-6c-3-1.5-9.5-4-13-5l-12-4c-3-1.5-10-3.5-14-4-3.5-1-10.5-2.5-14-3-3.5-1-11-1.5-15-1-3.5 0-10 1.5-13 3-3 1-4.5 3-3 4 1.5.5 6.5 2 10 3 4 .5 11 2.5 14 4 3 1 9.5 3 13 4s10 3 13 4c3.5 1 10 3 13 4 3.5 1 10 3.5 13 5s9 4 12 5c3.5 1 10 3.5 13 5 3.5 1 9.5 3.5 12 5 3 1.5 8.5 4.5 11 6 3 1.5 8.5 5 11 7 3 1.5 8 5 10 7l10 8c3 1.5 8.5 4.5 11 6 3 1.5 8 5 10 7 2.5 2 7 6.5 9 9 2.5 2 6.5 7 8 10 1.5 2.5 3.5 9 4 13 1 3.5 3.5 10 5 13 1.5 2.5 3.5 4.5 4 4l1-1zm-395-5c-4-4.5-6.5-6-8-6l-3-1 5 4 6 3zm257-12c-9-3.5-16-5.5-20-6-3.5-1-10.5-2.5-14-3-3.5-1-11-2.5-15-3-3.5-.5-10.5-2-14-3s-11-2.5-15-3c-3.5-.5-11-1.5-15-2l-16-2c-3.5-.5-11-1-15-1-4-.5-12.5-1-17-1-4-.5-12-1-16-1-4-.5-12.5-1-17-1h-18c-4 0-11.5 1-15 2-3.5.5-11 1.5-15 2s-8.5 2-9 3c-.5.5 3 1.5 7 2h17c4-.5 12-1 16-1h35c4.5 0 13 .5 17 1h17c4.5 0 12.5.5 16 1l16 2c4.5 0 12.5.5 16 1 4 .5 11.5 2 15 3l14 4c3.5.5 10.5 2 14 3 3.5.5 10.5 2 14 3 4 .5 10 1 12 1l5-1zm533 3v-28l-5 1c-2.5.5-7.5-1-10-3-2-2-5.5-6.5-7-9l-6-12c-1-3.5-3.5-9.5-5-12-1.5-3-5-8.5-7-11-1.5-3-1.5-5.5 0-5 1.5 0 4.5 2.5 6 5 2 2.5 5.5 8 7 11 2 2.5 5.5 8 7 11 1.5 2.5 7 8 11 11l9 6v-26l-8-5c-4-2.5-10-7.5-12-10s-5.5-7.5-7-10l-6-12c-1-3-4.5-8-7-10-2-2.5-5.5-7.5-7-10l-6-12c-1-3.5-3.5-9.5-5-12l-6-12c-1-3-3.5-9-5-12-1-3.5-4-9-6-11-2-2.5-5.5-8-7-11-1-3.5-3-9-4-11-.5-2-3.5-5.5-6-7-2.5-2-5-6-5-8s2.5-2 5 0c2.5 1.5 8 4.5 11 6s8 5 10 7l10 8c2.5 1.5 7.5 5 10 7s7 6 9 8c2.5 2 4 5.5 3 7-.5 1 1 4 3 6 2 1.5 6.5 5 9 7 2.5 1.5 7.5 5 10 7s5.5 7.5 6 11c.5 3 3.5 8.5 6 11l5 4V0h-175l5 7c3 3.5 8.5 9 11 11 2.5 1.5 7.5 5 10 7 3 1.5 8.5 5 11 7 2.5 1.5 6.5 5.5 8 8l4 5-7-2-12-6-5-3 4 4c2 2 6.5 6 9 8 2.5 1.5 7.5 5 10 7 2.5 1.5 3.5 4 2 5-1 .5-4.5-.5-7-2-2.5-2-8-5.5-11-7-2.5-2-5.5-1.5-6 1-.5 2 1 6.5 3 9 2 2 6.5 6 9 8 3 1.5 8.5 5 11 7 2.5 1.5 4 4.5 3 6-1 1-6 1.5-10 1-3.5-.5-10-2-13-3-2.5-1.5-7-5-9-7l-8-10-8-10c-1.5-2.5-5-7.5-7-10-1.5-2.5-4.5-8-6-11s-4.5-8.5-6-11l-6-12-2-7h-24l1 10c.5 4.5 2.5 12 4 15l6 12c1.5 2.5 4 8.5 5 12l6 12c1.5 2.5 4 8 5 11 1.5 3 4 9.5 5 13l6 12c1.5 2.5 4.5 8 6 11 2 2.5 5 6 6 7 1 .5 2-.5 2-2 .5-1.5 3-.5 5 2s5.5 8 7 11c1.5 2.5 4.5 8 6 11 2 2.5 5.5 7.5 7 10l8 10c2 2 6 6.5 8 9 2.5 2 6.5 7 8 10 1.5 2.5 4 8.5 5 12l6 12c1.5 2.5 5 7 7 9 2.5 2 7 6.5 9 9 2.5 2 6 7 7 10 1.5 3 4 9.5 5 13 1.5 3 4 9 5 12 1.5 3 4 9.5 5 13 1 3 3 9.5 4 13 1.5 3 4 9.5 5 13 1 3 3.5 9 5 12s1 6-1 6c-1.5 0-3 1.5-3 3 .5 1.5 2.5 6 4 9s4 9 5 12l6 12c2 2.5 5.5 8 7 11 1.5 2.5 4 8 5 11l6 12 6 12c1.5 2.5 4.5 8 6 11 2 2.5 7 7 10 9l7 3z"/>
    <path fill="#455A64" stroke="#455A64" stroke-width="1.5" d="M329 405l9-6-3 1c-1 .5-3 2-4 3l-2 2zm1-20c6.5-6 12-9.5 15-11s8-5 10-7l5-4-6 2c-3 .5-9 2.5-12 4s-8.5 5-11 7c-2.5 1.5-6 6-7 9l-2 6 4-3 4-3zm1110 2v-7l-9-6c-4-3-9.5-8.5-11-11-1.5-3-5-8.5-7-11-1.5-3-5-8.5-7-11-1.5-2.5-4.5-5-6-5-1.5-.5-1.5 2 0 5 2 2.5 5.5 8 7 11 1.5 2.5 4 8.5 5 12l6 12c1.5 2.5 5 7 7 9 2.5 2 7.5 3.5 10 3l5-1z"/>
    <path fill="#FFF" stroke="#FFF" stroke-width="1.5" d="M871 368c-15-5-24-7.5-28-8-3.5-1-9-2-11-2h-3l7 2c3.5.5 10.5 2 14 3l14 4 7 1zm-320-13l16 1-4-1c-2-1-6-1.5-8-1l-4 1z"/>
    <path fill="#455A64" stroke="#455A64" stroke-width="1.5" d="M1440 354v-26h-2c-.5-.5-1.5-2.5-2-4l-1-4 1 1h4v-31l-5-4c-2.5-2.5-5.5-8-6-11-.5-3.5-3.5-9-6-11s-7.5-5.5-10-7c-2.5-2-7-5.5-9-7-2-2-3.5-5-3-6 1-1.5-.5-5-3-7-2-2-6.5-6-9-8s-7.5-5.5-10-7l-10-8c-2-2-7-5.5-10-7s-8.5-4.5-11-6c-2.5-2-5-2-5 0s2.5 6 5 8c2.5 1.5 5.5 5 6 7 1 2 3 7.5 4 11 1.5 3 5 8.5 7 11 2 2 5 7.5 6 11 1.5 3 4 9 5 12l6 12c1.5 2.5 4 8.5 5 12l6 12c1.5 2.5 5 7.5 7 10 2.5 2 6 7 7 10l6 12c1.5 2.5 5 7.5 7 10s8 7.5 12 10l8 5z"/>
    <path fill="#FFF" stroke="#FFF" stroke-width="1.5" d="M537 333c7.5-5 12.5-8.5 15-10 3-2 9-5 12-6 3-1.5 5.5-4 5-5-.5-1.5-4.5-1.5-8 0-3 1-9 3.5-12 5-2.5 1.5-7.5 5-10 7s-7 6.5-9 9l-4 4 5-2 6-2zm900-6l3 1v-7h-4l-1-1 1 4 1 3z"/>
    <path fill="#455A64" stroke="#455A64" stroke-width="1.5" d="M138 316h-1 1zm20-9c-6-6.5-11-10.5-14-12s-9.5-2-13-1c-3 1-7 4-8 6l-2 3 7-2c3.5-1 10-.5 13 1 3 1 8 4.5 10 7 2.5 2 5.5 2.5 6 1l1-3zm-36 6l4-1-2 1h-2z"/>
    <path fill="#FFF" stroke="#FFF" stroke-width="1.5" d="M798 300c9-3.5 14.5-5 17-5l6-1h-8c-4-.5-12.5-1-17-1h-17l-16-2c-3.5-.5-11-.5-15 0s-10 1.5-12 2l-3 1h7c4 0 12 .5 16 1s11.5 2 15 3c3.5.5 12 1.5 17 2h10zm630-16c-7-6-12-9.5-15-11-2.5-2-8-5.5-11-7-2.5-1.5-7-5.5-9-8-1.5-2.5-4.5-5-6-5l-2-1 4 5c2 2 5.5 7 7 10l8 10c2 2 6.5 6 9 8 2.5 1.5 7.5 2 10 1l5-2zm-698-12c12-.5 20.5-1 25-1s13 .5 17 1h50l7-1-8-1c-4-.5-12.5-1-17-1h-16l-16-2c-4-.5-12.5-1-17-1-4 0-12 .5-16 1l-16 2h-8l7 2 8 1z"/>
    <path fill="#455A64" stroke="#455A64" stroke-width="1.5" d="M1416 240c-6-6.5-10-11.5-12-14-1.5-3-5-8-7-10-2-2.5-6.5-7-9-9l-4-4 3 1h4l-4-3c-2-2-7-5.5-10-7s-6.5-4-7-5c-.5-1.5 2-2 5-1l7 2-2-3c-1-1.5-4.5-4.5-7-6l-10-8c-2-2.5-6.5-7-9-9-2-2-6.5-6-9-8-2-2-6-6.5-8-9l-3-6 2 2c1.5 1 5 4.5 7 7l10 8c2.5 1.5 7 5.5 9 8 2 2 5 3 6 2s0-4.5-2-7c-1.5-2.5-5-7.5-7-10l-8-10c-1.5-2.5-4.5-8-6-11-1-3-3.5-8-5-10l-2-5 4 4 5 4-2-5c-.5-3-3.5-8-6-10l-8-8c-2-2.5-6.5-7-9-9s-8.5-5-12-6c-3-1-10-2.5-14-3-3.5-1-10-3.5-13-5-2.5-1.5-7.5-5-10-7l-4-4 3 6c1.5 3 5 8.5 7 11 2 2 5 7 6 10 1.5 2.5 2 7 1 9-.5 2 0 4.5 1 5 1 0 3.5.5 5 1s3.5 5 4 9c.5 3.5 2.5 10 4 13s5 8 7 10c2 1.5 6 5.5 8 8 2 2 5.5 7 7 10s2.5 7.5 2 9c0 1.5 1.5 5.5 3 8s5 7.5 7 10l8 8 10 8 12 6c3 1 8.5 4 11 6s7.5 5.5 10 7c3 1.5 8 5.5 10 8 2 2 6 6.5 8 9 2.5 2 7 4 9 4l4-1z"/>
    <path fill="#FFF" stroke="#FFF" stroke-width="1.5" d="M1345 241c-1-9-2.5-15-4-18l-2-6-1 6c0 2.5 1 8 2 11 1.5 3 3.5 6.5 4 7h1z"/>
    <path fill="#455A64" stroke="#455A64" stroke-width="1.5" d="M311 156c6.5-6 10.5-10.5 12-13 2-3 5.5-8.5 7-11 2-2.5 5.5-7.5 7-10 1.5-3 4.5-8.5 6-11 2-3 6-8 8-10 2-2.5 5.5-7.5 7-10 2-3 6-8 8-10 2-2.5 5.5-7.5 7-10 1.5-3 4.5-8.5 6-11 2-3 5.5-8.5 7-11l8-10c2-2.5 5.5-7.5 7-10 1.5-3 4.5-8.5 6-11l6-12 3-6h-15l-2 8c-1 4-3.5 11-5 14-1.5 2.5-5 7.5-7 10-1.5 2.5-5 8-7 11-1.5 2.5-5 7.5-7 10-1.5 2.5-4.5 8-6 11s-5 8.5-7 11c-1.5 2.5-5 7.5-7 10-1.5 2.5-5 8-7 11-1.5 2.5-5 7.5-7 10-1.5 2.5-5 8-7 11-1.5 2.5-4.5 8-6 11-1.5 2.5-5 7.5-7 10-1.5 2.5-5 8-7 11-1.5 2.5-2.5 5.5-2 6l1 1zm-170-28l-2-9 1 5 1 4zm1178-51c-7.5-5-13-8.5-16-10-2.5-2-7-6-9-8-2-2.5-3.5-7-3-9 .5-2.5 3.5-3 6-1 3 1.5 8.5 5 11 7 2.5 1.5 6 2.5 7 2 1.5-1 .5-3.5-2-5-2.5-2-7.5-5.5-10-7-2.5-2-7-6-9-8l-4-4 5 3 12 6 7 2-4-5c-1.5-2.5-5.5-6.5-8-8-2.5-2-8-5.5-11-7-2.5-2-7.5-5.5-10-7-2.5-2-8-7.5-11-11l-5-7h-23l2 7 6 12c1.5 2.5 4.5 8 6 11s4.5 8.5 6 11c2 2.5 5.5 7.5 7 10l8 10 8 10c2 2 6.5 5.5 9 7 3 1 9.5 2.5 13 3 4 .5 9 0 10-1l2-3zM231 65c-4.5-3.5-10-5.5-14-6s-11.5-2-15-3c-3-1-8.5-2.5-11-3l-4-1 5 4c2.5 2 8 5.5 11 7 3 1 11.5 2 17 2h11zm3-13c10.5-.5 13-2.5 12-4s-6-3-10-3l-16-2c-3.5-.5-11-1.5-15-2s-10 0-12 1c-1.5 1 .5 3 4 4s14.5 3 22 4l15 2zm-70-36h-1 1z"/>
  </g>
</svg>
